<svg width="101" height="100" viewBox="0 0 101 100" fill="none" xmlns="http://www.w3.org/2000/svg">
<path d="M50.1295 92.2747C73.6014 92.2747 92.6291 73.3487 92.6291 50.0023C92.6291 26.656 73.6014 7.72998 50.1295 7.72998C26.6576 7.72998 7.62988 26.656 7.62988 50.0023C7.62988 73.3487 26.6576 92.2747 50.1295 92.2747Z" fill="url(#paint0_linear_106_15836)" fill-opacity="0.6"/>
<path d="M50.1295 92.2747C73.6014 92.2747 92.6291 73.3487 92.6291 50.0023C92.6291 26.656 73.6014 7.72998 50.1295 7.72998C26.6576 7.72998 7.62988 26.656 7.62988 50.0023C7.62988 73.3487 26.6576 92.2747 50.1295 92.2747Z" fill="url(#paint1_linear_106_15836)"/>
<path fill-rule="evenodd" clip-rule="evenodd" d="M0.72998 49.9998C0.72998 22.8603 22.8492 0.859375 50.1346 0.859375C77.4201 0.859375 99.5393 22.8603 99.5393 49.9998C99.5393 77.1394 77.4201 99.1403 50.1346 99.1403C22.8492 99.1403 0.72998 77.1394 0.72998 49.9998ZM50.1346 4.4117C24.8216 4.4117 4.3014 24.8222 4.3014 49.9998C4.3014 75.1775 24.8216 95.588 50.1346 95.588C75.4476 95.588 95.9678 75.1775 95.9678 49.9998C95.9678 24.8222 75.4476 4.4117 50.1346 4.4117Z" fill="url(#paint2_linear_106_15836)"/>
<path fill-rule="evenodd" clip-rule="evenodd" d="M35.7526 15.828C36.2087 16.6978 35.8694 17.7706 34.995 18.2242C27.346 22.1916 22.4683 26.5479 18.1805 34.5213C17.7154 35.3863 16.6333 35.7124 15.7637 35.2497C14.894 34.7871 14.5662 33.7108 15.0313 32.8458C19.696 24.1716 25.1331 19.3331 33.3436 15.0744C34.2181 14.6208 35.2966 14.9582 35.7526 15.828Z" fill="white"/>
<path fill-rule="evenodd" clip-rule="evenodd" d="M45.8985 53.9351C45.8985 58.7567 43.0099 61.861 37.8304 61.861C35.9711 61.861 34.2446 61.4977 32.9165 60.7382C31.3892 59.8795 31.3892 58.7897 31.3892 57.6669V40.9894C31.3892 39.8005 32.1196 39.2061 33.6137 39.2061C35.1078 39.2061 35.8383 39.8005 35.8383 40.9894V47.3301C36.6683 46.7687 37.764 46.5045 39.0257 46.5045C43.0764 46.5045 45.8985 49.1795 45.8985 53.9351ZM35.8383 57.799C36.4027 58.1292 37.0999 58.2943 37.8636 58.2943C40.0217 58.2943 41.3498 56.8412 41.3498 54.2323C41.3498 51.5903 39.9885 50.0712 37.93 50.0712C37.1331 50.0712 36.4027 50.3024 35.8383 50.7317V57.799ZM54.2157 42.1453C54.2157 43.6644 53.12 44.7212 51.5927 44.7212C50.0654 44.7212 48.9698 43.6644 48.9698 42.1453C48.9698 40.6261 50.0654 39.6024 51.5927 39.6024C53.12 39.6024 54.2157 40.6261 54.2157 42.1453ZM53.8173 48.2878V60.0116C53.8173 61.2005 53.0868 61.7949 51.5927 61.7949C50.0986 61.7949 49.3682 61.2005 49.3682 60.0116V48.2878C49.3682 47.099 50.0986 46.5045 51.5927 46.5045C53.0868 46.5045 53.8173 47.099 53.8173 48.2878ZM67.2808 57.832C68.5093 57.832 68.8745 59.1199 68.8745 59.8465C68.8745 60.3088 68.7085 60.7712 68.0776 61.1345C67.3472 61.5638 66.0855 61.861 64.7906 61.861C62.4001 61.861 60.9724 60.9033 60.2419 59.5823C59.5779 58.3934 59.5115 56.9733 59.5115 55.4542V50.5005H58.3494C57.1541 50.5005 56.5565 49.9061 56.5565 48.6511C56.5565 47.3962 57.1541 46.8017 58.3494 46.8017H59.5115V43.8956C59.5115 42.7067 60.2419 42.1122 61.736 42.1122C63.2301 42.1122 63.9606 42.7067 63.9606 43.8956V46.8017H66.7496C67.9448 46.8017 68.5425 47.3962 68.5425 48.6511C68.5425 49.9061 67.9448 50.5005 66.7496 50.5005H63.9606V55.4542C63.9606 56.0487 63.9606 56.9073 64.2594 57.4687C64.4918 57.9311 64.9234 58.1292 65.4879 58.1292C65.8531 58.1292 66.2183 58.0301 66.5171 57.9641C66.7828 57.898 67.0152 57.832 67.2808 57.832Z" fill="white"/>
<defs>
<linearGradient id="paint0_linear_106_15836" x1="2.84341" y1="-36.7972" x2="92.0267" y2="79.3023" gradientUnits="userSpaceOnUse">
<stop offset="0.338542" stop-color="#FA72A1" stop-opacity="0"/>
<stop offset="1" stop-color="#FA72A1"/>
</linearGradient>
<linearGradient id="paint1_linear_106_15836" x1="31.2936" y1="31.3595" x2="95.2133" y2="110.372" gradientUnits="userSpaceOnUse">
<stop offset="0.015625" stop-color="#2A00BB"/>
<stop offset="1" stop-color="#861D89"/>
</linearGradient>
<linearGradient id="paint2_linear_106_15836" x1="82.719" y1="93.2156" x2="13.8212" y2="9.26318" gradientUnits="userSpaceOnUse">
<stop stop-color="#BE51A6"/>
<stop offset="1" stop-color="#3400EA"/>
</linearGradient>
</defs>
</svg>
