<svg width="150" height="32" viewBox="0 0 150 32" fill="none" xmlns="http://www.w3.org/2000/svg">
<g clip-path="url(#clip0_1332_9952)">
<path d="M39.2578 24.3984H46.1369C50.1429 24.3984 52.6731 22.4162 52.6731 19.3646C52.6731 17.0953 51.6716 15.4782 48.6671 14.774C50.9336 13.9393 51.6453 12.6874 51.6453 10.9398C51.6453 8.09681 49.484 6.14062 45.478 6.14062H39.2578V24.3984ZM42.9478 21.112V16.652H45.7942C47.7973 16.652 48.9306 17.4604 48.9306 18.7907C48.9306 20.3817 47.7973 21.112 45.7942 21.112H42.9478ZM42.9478 13.6785V9.40095H45.1352C47.1384 9.40095 47.9027 10.2617 47.9027 11.5136C47.9027 12.9743 47.1384 13.6785 45.1352 13.6785H42.9478ZM55.5255 29.8496C58.741 29.8496 60.4541 27.9979 61.6138 25.2592L67.6758 10.8355H63.4588L60.7967 18.582C60.5596 19.2341 60.3488 20.0427 60.2169 20.747C60.0851 20.0427 59.8743 19.2341 59.6372 18.582L56.9751 10.8355H52.679L58.1084 23.7724L57.9239 24.3462C57.5287 25.5461 56.6588 26.4069 55.2883 26.4069C54.7084 26.4069 54.2077 26.3547 53.6805 26.2242L53.1535 29.5888C53.8651 29.7976 54.8139 29.8496 55.5255 29.8496Z" fill="#172136"/>
<path d="M74.66 24.421H76.6074V21.2966H75.1337C74.4495 21.2966 74.0285 20.9061 74.0285 20.0469V13.8761H76.9232V10.8818H74.0285V7.78343L70.4758 8.14794V10.8818H68.5547V13.8761H70.4758V20.2291C70.4758 23.1712 71.9495 24.421 74.66 24.421ZM84.3038 24.7594C87.0144 24.7594 89.3039 23.5618 90.4091 21.8694L87.646 19.8125C87.0144 20.854 85.8302 21.6351 84.3038 21.6351C82.5144 21.6351 81.3038 20.5155 80.909 18.9273H91.146C91.2249 18.4847 91.2513 18.068 91.2513 17.6774C91.2513 13.7719 88.409 10.5433 84.3038 10.5433C80.1984 10.5433 77.2248 13.7719 77.2248 17.6774C77.2248 21.583 80.0669 24.7594 84.3038 24.7594ZM80.909 16.2975C81.3038 14.6832 82.5669 13.5636 84.2512 13.5636C85.9881 13.5636 87.2774 14.7874 87.6722 16.2975H80.909ZM100.679 24.7594C104.443 24.7594 107.443 21.609 107.443 17.7034C107.443 13.798 104.443 10.5954 100.679 10.5954C98.3373 10.5954 97.1004 11.5327 96.3636 12.9648V5.41406H92.8109V24.421H96.2582V22.2079C96.9951 23.744 98.232 24.7594 100.679 24.7594ZM96.2582 17.7034C96.2582 15.5945 97.7583 13.7719 100.1 13.7719C102.364 13.7719 103.89 15.5685 103.89 17.6774C103.89 19.7344 102.364 21.583 100.1 21.583C97.7583 21.583 96.2582 19.8125 96.2582 17.7034ZM115.136 24.7594C117.583 24.7594 118.82 23.744 119.557 22.2079V24.421H123.004V10.8818H119.478V13.0169C118.741 11.5588 117.504 10.5954 115.136 10.5954C111.372 10.5954 108.372 13.798 108.372 17.7034C108.372 21.609 111.372 24.7594 115.136 24.7594ZM111.925 17.6774C111.925 15.5685 113.451 13.7719 115.715 13.7719C118.057 13.7719 119.557 15.5945 119.557 17.7034C119.557 19.8125 118.057 21.583 115.715 21.583C113.451 21.583 111.925 19.7344 111.925 17.6774ZM129.799 24.7594C132.826 24.7594 135.115 22.8848 135.115 20.3853C135.115 18.3544 134.194 16.8963 130.22 15.8809C128.589 15.4643 128.378 15.0477 128.378 14.5791C128.378 13.7459 129.115 13.3814 130.089 13.3814C131.01 13.3814 131.852 13.798 132.51 14.8394L135.089 12.8867C133.694 11.0901 132.22 10.5433 130.01 10.5433C126.799 10.5433 124.904 12.3139 124.904 14.6832C124.904 16.4016 125.457 18.0419 129.115 18.9013C131.273 19.396 131.615 19.7865 131.615 20.4895C131.615 21.2966 130.931 21.8954 129.72 21.8954C128.562 21.8954 127.51 21.3487 126.51 20.2291L124.115 22.3901C125.615 23.9784 127.483 24.7594 129.799 24.7594ZM143.053 24.7594C145.763 24.7594 148.053 23.5618 149.158 21.8694L146.395 19.8125C145.763 20.854 144.579 21.6351 143.053 21.6351C141.263 21.6351 140.053 20.5155 139.658 18.9273H149.895C149.974 18.4847 150 18.068 150 17.6774C150 13.7719 147.158 10.5433 143.053 10.5433C138.947 10.5433 135.974 13.7719 135.974 17.6774C135.974 21.583 138.816 24.7594 143.053 24.7594ZM139.658 16.2975C140.053 14.6832 141.316 13.5636 143 13.5636C144.737 13.5636 146.026 14.7874 146.421 16.2975H139.658Z" fill="#172136"/>
<path d="M9.28294 30.4416C6.01272 28.9255 3.35113 26.3594 1.72703 23.1565C0.102939 19.9533 -0.389056 16.3001 0.330323 12.7851C1.0497 9.27025 2.93857 6.09847 5.69253 3.78089C8.44651 1.46333 11.9052 0.13492 15.5112 0.00973376C19.1174 -0.115452 22.6608 0.969895 25.5709 3.09084C28.4807 5.21181 30.5876 8.24487 31.5517 11.7013C32.5162 15.1578 32.2816 18.8362 30.8862 22.1441C29.4908 25.4519 27.0157 28.1965 23.86 29.9354L16.072 15.9689L9.28294 30.4416Z" fill="#172136"/>
<path d="M23.8458 29.9439C21.6325 31.1602 19.1616 31.8402 16.6341 31.9279C14.1067 32.0157 11.5941 31.5091 9.30078 30.4492L16.0732 15.9688L23.8458 29.9439Z" fill="white"/>
<path d="M7.03516 9.39062H25.2839V17.0556C25.2839 19.0486 24.8128 20.5475 23.8703 21.5523C22.945 22.5746 21.7457 23.0855 20.272 23.0855C19.3296 23.0855 18.5071 22.8557 17.8046 22.3958C17.1192 21.9527 16.5965 21.3397 16.2367 20.5562C15.9111 21.4076 15.3971 22.0805 14.6946 22.5746C13.992 23.0855 13.1609 23.3411 12.2014 23.3411C10.5907 23.3411 9.32269 22.8301 8.39739 21.808C7.48924 20.7861 7.03516 19.3126 7.03516 17.3878V9.39062ZM21.917 13.0187H17.9588V17.0301C17.9588 17.7625 18.1216 18.3247 18.4471 18.7164C18.7898 19.1253 19.2867 19.3295 19.9378 19.3295C20.5204 19.3295 20.9916 19.1338 21.3515 18.7421C21.7284 18.3673 21.917 17.7965 21.917 17.0301V13.0187ZM14.566 13.0187H10.4022V17.2855C10.4022 18.0521 10.5821 18.6229 10.942 18.9975C11.3018 19.3893 11.8158 19.585 12.4841 19.585C13.1181 19.585 13.6236 19.3893 14.0006 18.9975C14.3775 18.6229 14.566 18.0521 14.566 17.2855V13.0187Z" fill="white"/>
</g>
<defs>
<clipPath id="clip0_1332_9952">
<rect width="150" height="32" fill="white"/>
</clipPath>
</defs>
<script xmlns=""/></svg>