<svg width="429px" height="84px" xmlns="http://www.w3.org/2000/svg" xmlns:xlink="http://www.w3.org/1999/xlink"><defs><path d="M51.8701088 61.3155025l-6.6738976-3.8504889L65.274303 45.8835918c.7692638-.4447559 1.494323-.9534835 2.1695883-1.5221211 2.6096032 3.7159452 2.8661938 8.6102904.5396025 12.6384785-2.102011 3.6362344-6.0235291 5.8950458-10.2290754 5.8950458-2.0578062 0-4.0912236-.5462983-5.8843096-1.5794925zm-1.6076802 2.7824656c.7702801.4452636 1.5730785.8189397 2.4043306 1.1195053C50.750713 69.3329881 46.6381491 72 41.9798855 72c-6.5021596 0-11.7950405-5.2873143-11.7950405-11.7850144V37.0506189l10.1874111 5.8782912v14.5363065c0 .5737148.3068926 1.104274.8033066 1.3911313l9.0868659 5.2416202zM26.236804 62.8931672c-4.2065625 0-8.1214753-2.2567805-10.2245025-5.8914917-1.5730785-2.7259066-1.9937856-5.9011383-1.1767603-8.9433495.8165172-3.0422112 2.76559-5.5838182 5.4956129-7.1572182l6.6718651-3.8494735.0010162 23.1592896c0 .8884963.0762151 1.7698846.2311857 2.6416263-.3322976.0279242-.6661195.040617-.9984171.040617zm25.962757-28.6252678l-10.1833463 5.875245-12.5998714-7.2673917c-.247953-.1426671-.5253758-.21527-.8048309-.21527-.2758985 0-.5533213.0726029-.8027985.21527l-9.0853416 5.2416202c-.769772.4422173-1.4968635.9499294-2.1721288 1.5211056-2.608587-3.7154375-2.8631452-8.6092749-.5390944-12.6389862 2.1030271-3.6357267 6.0204805-5.8965689 10.2285672-5.8965689 2.0552658 0 4.0896994.5483291 5.8843097 1.5820311l20.074535 11.5829449zM41.9799871 12c6.5052082 0 11.7945324 5.2873143 11.7945324 11.7875529v7.6999625L33.702525 19.9081244c-.77028-.446279-1.5735866-.8209705-2.4073792-1.1225515C33.211192 14.668535 37.3247721 12 41.9799871 12zm26.0034051 15.0032494c3.2498095 5.6284968 1.3139474 12.8507021-4.3193607 16.0990444l-20.074535 11.5819296V42.9317026l12.5983471-7.2684071c.4979383-.2868574.8048308-.8174166.8048308-1.391639V23.788416c.0010162-.8854499-.0792636-1.7678537-.2311856-2.6365491.3297571-.0289396.6620547-.0426479.9953685-.0426479 4.2070705 0 8.1255401 2.2588114 10.2265349 5.8940304z" id="a"/></defs><g fill="none" fill-rule="evenodd"><path d="M328.512741 28.7540177c8.296217 0 14.538419 4.5672939 14.538419 14.5094086v19.8801552h-8.294547l.244645-4.8076778c-2.467323 3.607388-5.749573 5.5304592-10.842027 5.5304592-6.817493 0-12.405917-3.1258055-12.405917-10.6616367 0-6.9776517 5.752077-10.0187116 13.554829-10.1018274h9.44847c0-5.3715614-2.464818-7.6156876-6.89932-7.6156876-3.571147 0-5.947459 1.2051789-7.724265 2.7363021l-5.991713-3.3759677-.085166-.0823009c.052603-.0602997.103536-.123044.156973-.1784545 3.02341-3.4297484 7.109731-5.8327725 14.299619-5.8327725zm6.243872 22.6042343v-2.6450377h-8.871508c-3.615401 0-5.998392 1.2842204-5.998392 4.2527577 0 2.8837918 2.30033 4.4051367 6.572013 4.4051367 4.846974 0 8.297887-2.3256123 8.297887-6.0128567zm87.602072 1.4276358L429 56.5293576c-3.266385 4.4352865-8.586785 7.3370053-14.611061 7.3370053-9.935254 0-17.985991-7.8625904-17.985991-17.5578023 0-9.6943971 8.050737-17.5545429 17.985991-17.5545429 6.015092 0 11.320462 2.888681 14.589352 7.3084851l-6.641315 3.7459144c-1.908731-2.2139764-4.761808-3.625315-7.948037-3.625315-5.720348 0-10.373611 4.5420332-10.373611 10.1254584 0 5.5826102 4.653263 10.1279029 10.373611 10.1279029 3.198753 0 6.06352-1.421117 7.969746-3.6505757zm-291.402948 0l6.641315 3.7434698c-3.266385 4.4352865-8.586785 7.3370053-14.611061 7.3370053-9.935254 0-17.985991-7.8625904-17.985991-17.5578023 0-9.6943971 8.050737-17.5545429 17.985991-17.5545429 6.015091 0 11.320462 2.888681 14.589352 7.3084851l-6.641316 3.7459144c-1.908731-2.2139764-4.761808-3.625315-7.948036-3.625315-5.720348 0-10.373611 4.5420332-10.373611 10.1254584 0 5.5826102 4.653263 10.1279029 10.373611 10.1279029 3.198753 0 6.063519-1.421117 7.969746-3.6505757zm121.446562-23.3099036h8.295382l-.163654 5.771658c2.302-4.2478686 5.833069-6.4936245 10.269241-6.4936245 5.008958 0 8.298721 2.321538 10.103917 6.4121384 2.710298-4.0074846 6.816658-6.4121384 11.826451-6.4121384 8.131728 0 12.976198 5.291705 12.976198 13.8664836v20.5230802h-8.292877V43.4247687c0-4.6520394-1.726709-7.2164058-6.491022-7.2164058-4.841964 0-7.720925 2.8870512-7.720925 8.4989965v18.4362221h-8.292877V43.4247687c0-4.6520394-1.646552-7.2164058-6.409195-7.2164058-4.931306 0-7.805257 2.8870512-7.805257 8.4989965v18.4362221h-8.295382V29.4759842zM143.594609 10h8.294547v25.40654c2.219338-4.1663825 6.328203-6.6525223 11.505824-6.6525223 7.634089 0 12.894372 5.291705 12.894372 14.4319969v19.9575669h-8.299557V43.8256802c0-4.8109373-2.297825-7.6173173-7.14814-7.6173173-5.418925 0-8.952499 3.2072915-8.952499 8.659524v18.2756946h-8.294547V10zM227.8301 28.7540177c9.939429 0 17.988496 7.8601458 17.988496 17.5545429 0 9.6952119-8.049067 17.5578023-17.988496 17.5578023-9.931079 0-17.985991-7.8625904-17.985991-17.5578023 0-9.6943971 8.054912-17.5545429 17.985991-17.5545429zm0 7.4290845c-5.717009 0-10.372776 4.5420332-10.372776 10.1254584 0 5.5826102 4.655767 10.1279029 10.372776 10.1279029 5.726193 0 10.381126-4.5452927 10.381126-10.1279029 0-5.5834252-4.654933-10.1254584-10.381126-10.1254584zm-43.295464-6.707118h8.300391l-.085166 6.3314672c2.305339-5.2900753 6.245542-6.9743922 10.024595-6.9743922 1.767622 0 3.158675.2900904 4.344326.7790068.46758.1906774 1.443655.648629 2.393011 1.3428903 0 0-1.148913 1.3958563-2.160891 3.0940259-1.016153 1.6997993-1.70166 3.5218277-1.70166 3.5218277-1.314235-.6396656-2.630141-1.1236928-4.517163-1.1236928-4.928801 0-8.297052 2.80638-8.297052 10.343841v16.3526234h-8.300391V29.4759842zm196.257798 33.7205632V29.4767991h8.391403v33.7197483h-8.391403zm-1.316741-46.8055954c0-3.0508382 2.549985-5.2990387 5.511607-5.2990387 2.961623 0 5.512442 2.2482005 5.512442 5.2990387 0 3.210551-2.550819 5.3780803-5.512442 5.3780803-2.961622 0-5.511607-2.1675293-5.511607-5.3780803zm-24.732512 35.405695v-15.49539h-5.183466v-6.8244579h5.183466V10h8.308741v19.4767991h9.213844v6.8244579h-9.213844v15.6551027c0 3.8542908 1.316741 4.9787985 3.455088 4.9787985 1.974693 0 3.208772-.8833089 4.113039-1.6060903l3.949387 5.4587514C372.841058 62.3939097 370.126585 64 365.684569 64c-6.498537 0-10.941388-3.2121807-10.941388-12.203353z" fill="#333"/><circle fill="#FC521F" cx="42" cy="42" r="42"/><use fill="#FFF" xlink:href="#a"/></g></svg>