<?xml version="1.0" encoding="UTF-8"?>
<svg width="117px" height="33px" viewBox="0 0 117 33" version="1.1" xmlns="http://www.w3.org/2000/svg" xmlns:xlink="http://www.w3.org/1999/xlink">
    <!-- Generator: Sketch 51.3 (57544) - http://www.bohemiancoding.com/sketch -->
    <title>Group 58</title>
    <desc>Created with Sketch.</desc>
    <defs>
        <polygon id="path-1" points="0.5863 0.1676 5.7533 0.1676 5.7533 6 0.5863 6"></polygon>
    </defs>
    <g id="001_home_v1" stroke="none" stroke-width="1" fill="none" fill-rule="evenodd">
        <g id="001a_home_desktophd_v3" transform="translate(-135.000000, -63.000000)">
            <g id="Group-58" transform="translate(135.000000, 63.000000)">
                <path d="M43.844,26.3399 C45.784,26.3189 48.028,25.1469 49.313,24.0499 C52.807,21.2929 54.288,16.2309 52.833,12.0169 C52.742,11.7539 52.625,11.4759 52.501,11.1789 C52.052,10.1159 51.546,8.9129 51.891,7.6079 C52.403,5.7059 54.24,4.6779 55.807,4.6459 L115.508,4.6459 L116.501,0.0059 L55.11,0.0059 C53.022,0.0109 50.698,1.1149 49.179,2.8289 C47.049,5.1309 46.32,8.8059 47.404,11.7689 C48.011,13.2019 49.399,16.4989 47.582,18.9329 C46.369,20.6769 44.498,21.6769 42.599,21.6139 L17.013,21.6139 L16.038,26.3379 L43.844,26.3399 Z" id="Fill-1" fill="#0094D8"></path>
                <path d="M47.4065,11.7804 C47.4055,11.7764 47.4055,11.7734 47.4035,11.7704 C47.4005,11.7624 47.3965,11.7544 47.3935,11.7454 L47.4065,11.7804 Z" id="Fill-3" fill="#0094D8"></path>
                <polygon id="Fill-5" fill="#0094D8" points="19.6272 0.0001 18.6292 4.5961 13.6772 4.5961 14.6382 0.0001"></polygon>
                <polygon id="Fill-7" fill="#0094D8" points="13.5271 29.2501 8.6431 29.2501 13.3641 6.1521 18.3161 6.1521"></polygon>
                <path d="M28.6555,12.3067 C29.3625,8.9847 27.2435,8.2467 25.4355,8.2467 C23.4305,8.2467 22.0425,9.6087 21.4885,10.2327 L21.4425,10.2327 L21.7935,8.5807 L19.9455,8.5807 L17.4605,20.2497 L19.4235,20.2497 L20.7775,13.8907 C21.4505,10.7227 23.5665,10.0097 24.6815,10.0097 C26.6005,10.0097 26.9625,11.0357 26.5315,13.0667 L25.0025,20.2497 L26.9655,20.2497 L28.6555,12.3067 Z" id="Fill-9" fill="#0094D8"></path>
                <path d="M35.5461,10.2096 L35.8911,8.5816 L33.9271,8.5816 L34.2361,7.1316 C34.4351,6.1946 34.8381,5.7676 35.6861,5.7676 C35.9321,5.7676 36.2411,5.7926 36.4791,5.8146 L36.8531,4.0526 C36.5461,4.0296 36.2621,4.0066 35.9701,4.0066 C34.0511,4.0066 32.7671,4.8106 32.3891,6.5736 L31.9641,8.5816 L30.3581,8.5816 L30.0111,10.2096 L31.6161,10.2096 L29.4811,20.2516 L31.4471,20.2516 L33.5791,10.2096 L35.5461,10.2096 Z" id="Fill-11" fill="#0094D8"></path>
                <path d="M43.6692,14.4054 C43.3392,15.9674 42.1402,18.8674 39.3302,18.8674 C36.5182,18.8674 36.5562,15.9674 36.8882,14.4054 C37.2182,12.8414 38.4172,9.9444 41.2282,9.9444 C44.0402,9.9444 44.0042,12.8414 43.6692,14.4054 M41.5892,8.2474 C37.8632,8.2474 35.4982,11.3934 34.8582,14.4054 C34.2172,17.4184 35.2452,20.5634 38.9692,20.5634 C42.6962,20.5634 45.0602,17.4184 45.7002,14.4054 C46.3422,11.3934 45.3142,8.2474 41.5892,8.2474" id="Fill-13" fill="#0094D8"></path>
                <path d="M64.1882,20.1544 L66.6692,8.4854 L64.7062,8.4854 L63.3382,14.9104 C62.9792,16.6074 61.7782,18.7924 59.3012,18.7924 C58.0292,18.7924 57.1842,18.1464 57.5932,16.2264 L59.2392,8.4854 L57.2762,8.4854 L55.4922,16.8734 C54.8962,19.6644 56.7982,20.4884 58.5152,20.4884 C60.3902,20.4884 61.5472,19.7734 62.6602,18.4144 L62.6972,18.4574 L62.3352,20.1544 L64.1882,20.1544 Z" id="Fill-15" fill="#0094D8"></path>
                <path d="M75.3405,14.2862 C74.7945,16.8522 73.3795,18.7942 71.2365,18.7942 C69.9885,18.7942 68.2215,17.9682 68.8785,14.8652 C69.2835,12.9702 70.2465,9.9132 73.0795,9.9132 C76.1135,9.9132 75.6585,12.7902 75.3405,14.2862 M73.8125,8.1502 C71.6945,8.1502 70.5205,9.4672 69.9095,10.1362 L69.8645,10.1362 L70.2165,8.4862 L68.3635,8.4862 L64.8995,24.7712 L66.8635,24.7712 L68.1065,18.9282 L68.1525,18.9282 C68.4905,19.7542 69.3585,20.4902 70.9225,20.4902 C74.8935,20.4902 76.8445,16.7622 77.4375,13.9732 C78.1345,10.6922 76.9135,8.1502 73.8125,8.1502" id="Fill-17" fill="#0094D8"></path>
                <path d="M87.1452,14.2862 C86.6012,16.8522 85.1822,18.7942 83.0422,18.7942 C81.7902,18.7942 80.0252,17.9682 80.6852,14.8652 C81.0872,12.9702 82.0482,9.9132 84.8832,9.9132 C87.9172,9.9132 87.4602,12.7902 87.1452,14.2862 M85.6162,8.1502 C83.4962,8.1502 82.3242,9.4672 81.7122,10.1362 L81.6662,10.1362 L82.0202,8.4862 L80.1662,8.4862 L76.7032,24.7712 L78.6672,24.7712 L79.9122,18.9282 L79.9562,18.9282 C80.2912,19.7542 81.1622,20.4902 82.7232,20.4902 C86.6972,20.4902 88.6502,16.7622 89.2412,13.9732 C89.9402,10.6922 88.7172,8.1502 85.6162,8.1502" id="Fill-19" fill="#0094D8"></path>
                <path d="M99.2585,14.3106 C98.9265,15.8706 97.7305,18.7706 94.9165,18.7706 C92.1075,18.7706 92.1435,15.8706 92.4755,14.3106 C92.8075,12.7456 94.0045,9.8466 96.8165,9.8466 C99.6265,9.8466 99.5905,12.7456 99.2585,14.3106 M97.1775,8.1496 C93.4515,8.1496 91.0865,11.2966 90.4455,14.3106 C89.8065,17.3226 90.8315,20.4656 94.5605,20.4656 C98.2835,20.4656 100.6495,17.3226 101.2895,14.3106 C101.9305,11.2966 100.9045,8.1496 97.1775,8.1496" id="Fill-21" fill="#0094D8"></path>
                <path d="M104.9245,13.3712 C105.2875,11.6742 106.7485,10.2482 108.5795,10.2482 L109.3145,10.2482 L109.7495,8.2182 C109.6015,8.1732 109.4925,8.1512 109.2475,8.1512 C107.7775,8.1512 106.5555,9.0652 105.4865,10.4272 L105.4405,10.4272 L105.8535,8.4842 L104.0005,8.4842 L101.5195,20.1542 L103.4825,20.1542 L104.9245,13.3712 Z" id="Fill-23" fill="#0094D8"></path>
                <path d="M116.1482,10.1139 L116.4942,8.4849 L114.6192,8.4849 L115.3122,5.4929 L113.3482,5.4929 L112.6562,8.4849 L111.0722,8.4849 L110.7262,10.1139 L112.3102,10.1139 L110.6712,17.8139 C110.3752,19.2189 110.5672,20.3099 112.5042,20.3099 C112.7092,20.3099 113.2852,20.2219 114.0142,20.1549 L114.3382,18.6139 L113.6492,18.6139 C113.2472,18.6139 112.4662,18.6139 112.6612,17.6979 L114.2732,10.1139 L116.1482,10.1139 Z" id="Fill-25" fill="#0094D8"></path>
                <polygon id="Fill-27" fill="#0094D8" points="0.9763 21.5997 0.0003 26.3247 7.3733 26.3127 8.3463 21.5997"></polygon>
                <path d="M56.7829,31.3302 C56.8569,31.4782 56.9299,31.5522 57.0789,31.6262 C57.2259,31.6992 57.2999,31.7732 57.5209,31.7732 C57.6689,31.7732 57.8159,31.8482 58.0379,31.8482 C58.1849,31.8482 58.3339,31.8482 58.4069,31.7732 C58.5539,31.7732 58.6289,31.6992 58.7759,31.6262 C58.8499,31.5522 58.9979,31.4782 59.0709,31.4042 C59.1449,31.3302 59.1449,31.1832 59.1449,31.0352 C59.1449,30.8882 59.0709,30.8132 58.9979,30.6662 C58.9239,30.5932 58.7759,30.5182 58.6289,30.4442 C58.4809,30.3712 58.3339,30.2972 58.1849,30.2972 C58.0379,30.2242 57.8159,30.2242 57.6689,30.1492 C57.4469,30.0752 57.2999,30.0022 57.1519,29.9282 C57.0049,29.8542 56.8569,29.7802 56.7099,29.6332 C56.5609,29.4852 56.4879,29.3382 56.3409,29.1892 C56.2659,29.0422 56.1919,28.8202 56.1919,28.5252 C56.1919,28.2302 56.2659,27.9342 56.4139,27.7142 C56.5609,27.4922 56.7099,27.2702 56.9299,27.1232 C57.1519,26.9762 57.3739,26.9012 57.6689,26.8282 C57.9649,26.7542 58.2599,26.7542 58.4809,26.7542 C58.7759,26.7542 59.0709,26.7542 59.2929,26.8282 C59.5889,26.9012 59.8089,26.9762 59.9569,27.1232 C60.1789,27.2702 60.3259,27.4922 60.3999,27.7142 C60.5479,27.9342 60.5479,28.2302 60.5479,28.6002 L59.2929,28.6002 C59.2929,28.4522 59.2929,28.3042 59.2199,28.1562 C59.1449,28.0832 59.0709,27.9342 58.9979,27.8612 C58.9239,27.7872 58.7759,27.7142 58.6289,27.7142 C58.4809,27.7142 58.3339,27.6402 58.1849,27.6402 L57.8159,27.6402 C57.6689,27.6402 57.5949,27.7142 57.5209,27.7872 L57.2999,28.0092 C57.2259,28.0832 57.2259,28.2302 57.2259,28.3782 C57.2259,28.5252 57.2999,28.6002 57.3739,28.7472 C57.4469,28.8202 57.5949,28.8942 57.7429,28.9692 C57.8899,29.0422 58.0379,29.1162 58.1849,29.1162 C58.3339,29.1162 58.4809,29.1892 58.5539,29.1892 C58.7759,29.2642 58.9979,29.3382 59.2199,29.4112 C59.4399,29.4852 59.5889,29.5592 59.7359,29.7072 C59.8839,29.8542 59.9569,30.0022 60.0309,30.1492 C60.1049,30.2972 60.1789,30.5182 60.1789,30.8132 C60.1789,31.1832 60.1049,31.4782 59.9569,31.6992 C59.8089,31.9212 59.6619,32.1422 59.3669,32.2902 C59.1449,32.4372 58.8499,32.5852 58.6289,32.5852 C58.3339,32.6592 58.0379,32.6592 57.8159,32.6592 C57.0049,32.6592 56.4139,32.5122 55.9709,32.1422 C55.6019,31.8482 55.3809,31.3302 55.3809,30.5932 L56.6359,30.5932 C56.7099,31.0352 56.7099,31.1832 56.7829,31.3302" id="Fill-29" fill="#0094D8"></path>
                <path d="M62.1716,31.4044 C62.1716,31.5514 62.2456,31.6264 62.3186,31.6994 C62.3936,31.7734 62.4666,31.8474 62.6146,31.9214 C62.6886,31.9954 62.8356,31.9954 62.9836,31.9954 C63.2046,31.9954 63.3536,31.9214 63.5736,31.8474 C63.7216,31.6994 63.8696,31.5514 63.9426,31.4044 C64.0176,31.2574 64.0906,31.0354 64.1646,30.8134 C64.2386,30.5924 64.2386,30.4444 64.2386,30.2234 C64.2386,29.9274 64.1646,29.7074 64.0176,29.5584 C63.9426,29.4114 63.7216,29.3384 63.3536,29.3384 C63.1316,29.3384 62.9836,29.4114 62.8356,29.4854 C62.6886,29.6334 62.5406,29.7804 62.4666,29.9274 C62.3186,30.0754 62.2456,30.2974 62.2456,30.5184 C62.1716,30.7404 62.1716,30.8874 62.1716,31.1094 L62.1716,31.4044 M61.1386,30.0754 C61.2856,29.7804 61.4336,29.4854 61.6546,29.2634 C61.8766,29.0424 62.0986,28.8204 62.3936,28.6734 C62.6886,28.5254 63.0576,28.4524 63.4266,28.4524 C63.7216,28.4524 64.0176,28.4524 64.2386,28.5254 C64.4596,28.5994 64.6816,28.6734 64.8286,28.8204 C64.9766,28.9684 65.1246,29.1164 65.1976,29.3384 C65.2726,29.5584 65.3456,29.8544 65.3456,30.1494 C65.3456,30.5184 65.2726,30.8874 65.1976,31.1824 C65.1246,31.4784 64.9026,31.7734 64.6816,31.9954 C64.4596,32.2164 64.2386,32.4374 63.9426,32.5854 C63.6486,32.7334 63.2786,32.8064 62.9096,32.8064 C62.3186,32.8064 61.8766,32.6594 61.5076,32.3644 C61.1386,32.0684 60.9906,31.6264 60.9906,31.0354 C60.9906,30.6664 61.0646,30.3714 61.1386,30.0754" id="Fill-31" fill="#0094D8"></path>
                <polygon id="Fill-33" fill="#0094D8" points="68.2243 26.9757 66.9693 32.7337 65.8633 32.7337 67.0433 26.9757"></polygon>
                <path d="M69.1101,27.9347 L69.3321,26.9757 L70.5131,26.9757 L70.2921,27.9347 L69.1101,27.9347 Z M70.1441,28.5257 L69.2581,32.7337 L68.1511,32.7337 L69.0371,28.5257 L70.1441,28.5257 Z" id="Fill-35" fill="#0094D8"></path>
                <g id="Group-39" transform="translate(70.000000, 26.880800)">
                    <mask id="mask-2" fill="white">
                        <use xlink:href="#path-1"></use>
                    </mask>
                    <g id="Clip-38"></g>
                    <path d="M2.4323,2.6046 C2.2853,2.7516 2.1373,2.8266 2.0633,3.0466 C1.9893,3.1946 1.9153,3.4166 1.8413,3.6376 C1.7683,3.8596 1.7683,4.0066 1.7683,4.2286 C1.7683,4.3756 1.7683,4.4496 1.8413,4.5976 C1.8413,4.7456 1.9153,4.8186 1.9893,4.8926 C2.0633,4.9666 2.1373,5.0406 2.2103,5.1146 C2.2853,5.1876 2.4323,5.1876 2.5793,5.1876 C2.8013,5.1876 3.0233,5.1146 3.1703,5.0406 C3.3183,4.8926 3.4653,4.7456 3.5393,4.5976 C3.6133,4.4496 3.7603,4.2286 3.7603,4.0066 C3.8343,3.7856 3.8343,3.6376 3.8343,3.4166 C3.8343,3.1216 3.7603,2.8996 3.6133,2.7516 C3.4653,2.5306 3.3183,2.4576 3.0233,2.4576 C2.8013,2.4576 2.5793,2.4576 2.4323,2.6046 Z M3.4653,5.3356 C3.3183,5.5566 3.1703,5.7046 2.9493,5.8526 C2.7273,5.9256 2.5053,6.0006 2.2103,6.0006 C1.6943,6.0006 1.3253,5.8526 1.0303,5.5566 C0.7343,5.2616 0.5863,4.8926 0.5863,4.3756 C0.5863,4.0066 0.6613,3.7116 0.7343,3.3426 C0.8083,3.0466 0.9553,2.7516 1.1773,2.4576 C1.3993,2.1616 1.6203,2.0136 1.9153,1.8666 C2.2103,1.7186 2.5793,1.6446 2.9493,1.6446 C3.1703,1.6446 3.4653,1.7186 3.6873,1.7926 C3.9093,1.8666 4.0563,2.0876 4.1293,2.3086 L4.5733,0.1676 L5.7533,0.1676 L4.4983,5.9256 L3.3183,5.9256 L3.4653,5.3356 Z" id="Fill-37" fill="#0094D8" mask="url(#mask-2)"></path>
                </g>
                <polygon id="Fill-40" fill="#0094D8" points="80.0349 26.9757 78.7799 32.7337 77.5249 32.7337 78.7799 26.9757"></polygon>
                <path d="M82.028,28.5255 L81.881,29.1165 C82.25,28.6725 82.766,28.4525 83.357,28.4525 C84.169,28.4525 84.612,28.8205 84.612,29.5585 L84.612,29.7075 L84.612,29.9275 C84.612,30.0025 84.612,30.0755 84.538,30.1495 L84.538,30.2965 L84.021,32.7335 L82.84,32.7335 L83.357,30.2965 C83.357,30.2235 83.357,30.1495 83.43,30.0025 L83.43,29.7805 C83.43,29.6325 83.357,29.5585 83.283,29.4855 C83.135,29.4115 83.062,29.3375 82.914,29.3375 C82.766,29.3375 82.619,29.3375 82.471,29.4115 C82.324,29.4855 82.25,29.5585 82.102,29.7075 C82.028,29.7805 81.955,29.9275 81.881,30.0755 C81.807,30.2235 81.807,30.3715 81.733,30.5185 L81.29,32.7335 L80.109,32.7335 L80.995,28.5255 L82.028,28.5255 Z" id="Fill-42" fill="#0094D8"></path>
                <path d="M87.195,28.5255 L87.048,29.1165 C87.417,28.6725 87.933,28.4525 88.524,28.4525 C89.337,28.4525 89.779,28.8205 89.779,29.5585 L89.779,29.7075 C89.779,29.7805 89.779,29.8545 89.705,29.9275 C89.705,30.0025 89.705,30.0755 89.632,30.1495 L89.632,30.2965 L89.115,32.7335 L87.933,32.7335 L88.45,30.2965 C88.45,30.2235 88.45,30.1495 88.524,30.0025 L88.524,29.7805 C88.524,29.6325 88.45,29.5585 88.377,29.4855 C88.229,29.4115 88.155,29.3375 88.007,29.3375 C87.86,29.3375 87.713,29.3375 87.564,29.4115 C87.417,29.4855 87.343,29.5585 87.196,29.7075 C87.048,29.8545 87.048,29.9275 86.974,30.0755 C86.9,30.2235 86.827,30.3715 86.827,30.5185 L86.383,32.7335 L85.203,32.7335 L86.089,28.5255 L87.195,28.5255 Z" id="Fill-44" fill="#0094D8"></path>
                <path d="M91.7722,31.4044 C91.7722,31.5514 91.8462,31.6264 91.9192,31.6994 C91.9942,31.7734 92.0672,31.8474 92.2142,31.9214 C92.2892,31.9954 92.4362,31.9954 92.5842,31.9954 C92.8052,31.9954 92.9532,31.9214 93.1742,31.8474 C93.3222,31.6994 93.4692,31.5514 93.5432,31.4044 C93.6182,31.2574 93.6912,31.0354 93.7652,30.8134 C93.8382,30.5924 93.8382,30.4444 93.8382,30.2234 C93.8382,29.9274 93.7652,29.7074 93.6182,29.5584 C93.4692,29.4114 93.2492,29.3384 92.9532,29.3384 C92.7322,29.3384 92.5842,29.4114 92.4362,29.4854 C92.2892,29.6334 92.1412,29.7804 92.0672,29.9274 C91.9942,30.0754 91.9192,30.2974 91.8462,30.5184 C91.7722,30.7404 91.7722,30.8874 91.7722,31.1094 C91.6982,31.1824 91.6982,31.3304 91.7722,31.4044 M90.7392,30.0754 C90.8862,29.7804 91.0342,29.4854 91.2552,29.2634 C91.4772,29.0424 91.6982,28.8204 91.9942,28.6734 C92.2892,28.5254 92.6582,28.4524 93.0272,28.4524 C93.3222,28.4524 93.6182,28.4524 93.8382,28.5254 C94.0602,28.5994 94.2822,28.6734 94.4292,28.8204 C94.5772,28.9684 94.7242,29.1164 94.7982,29.3384 C94.8732,29.5584 94.9462,29.8544 94.9462,30.1494 C94.9462,30.5184 94.8732,30.8874 94.7982,31.1824 C94.6512,31.4784 94.5032,31.7734 94.2822,31.9954 C94.0602,32.2164 93.8382,32.4374 93.5432,32.5854 C93.2492,32.7334 92.8792,32.8064 92.5102,32.8064 C91.9192,32.8064 91.4772,32.6594 91.1082,32.3644 C90.7392,32.0684 90.5912,31.6264 90.5912,31.0354 C90.5172,30.6664 90.5912,30.3714 90.7392,30.0754" id="Fill-46" fill="#0094D8"></path>
                <polygon id="Fill-48" fill="#0094D8" points="96.2751 32.7335 95.6841 28.5255 96.9391 28.5255 97.1611 31.5515 98.7111 28.5255 99.8921 28.5255 97.6031 32.7335"></polygon>
                <path d="M102.3279,30.8878 C102.1809,30.8878 101.9589,30.8878 101.8109,30.9618 C101.7369,30.9618 101.5899,30.9618 101.5159,31.0348 C101.4419,31.0348 101.2949,31.1098 101.2209,31.1098 C101.1469,31.1828 101.0729,31.2568 100.9989,31.3298 C100.9259,31.4048 100.9259,31.5518 100.9259,31.6258 C100.9259,31.7738 100.9989,31.9208 101.1469,31.9948 C101.2949,32.0688 101.4419,32.1428 101.5899,32.1428 C101.7369,32.1428 101.8859,32.1428 102.0329,32.0688 C102.1809,31.9948 102.2549,31.9208 102.3279,31.8478 C102.4019,31.7738 102.4749,31.6258 102.5499,31.5518 C102.6229,31.4048 102.6229,31.3298 102.6969,31.1828 L102.8449,30.8138 C102.6969,30.8138 102.5499,30.8878 102.3279,30.8878 M100.6309,29.1898 L101.0729,28.7468 C101.2209,28.6728 101.4419,28.5258 101.6639,28.5258 C101.8859,28.4518 102.1059,28.4518 102.3279,28.4518 C102.5499,28.4518 102.6969,28.4518 102.9189,28.5258 C103.1399,28.5258 103.2879,28.5998 103.5089,28.6728 C103.6569,28.7468 103.8049,28.8948 103.9519,28.9688 C104.0989,29.1168 104.0989,29.3378 104.0989,29.5588 C104.0989,29.7808 104.0989,30.0018 104.0259,30.2968 L103.6569,31.9948 C103.6569,32.0688 103.6569,32.1428 103.5829,32.2898 L103.5829,32.5848 C103.5829,32.6588 103.5829,32.7338 103.6569,32.8068 L102.4749,32.8068 L102.4749,32.3648 C102.3279,32.5118 102.1059,32.6588 101.8859,32.7338 C101.6639,32.8068 101.4419,32.8808 101.1469,32.8808 C100.9259,32.8808 100.7039,32.8808 100.5569,32.8068 C100.4089,32.7338 100.2619,32.6588 100.1129,32.5848 C99.9659,32.5118 99.8919,32.3648 99.8919,32.2168 C99.8179,32.0688 99.8179,31.9208 99.8179,31.7738 C99.8179,31.4048 99.9659,31.0348 100.2619,30.8138 C100.5569,30.5928 100.9259,30.4448 101.4419,30.3708 C101.7369,30.3708 101.9589,30.2968 102.1809,30.2968 C102.4019,30.2968 102.5499,30.2238 102.6969,30.2238 C102.8449,30.2238 102.9189,30.1498 102.9919,30.0758 C103.0659,30.0018 103.0659,29.9278 103.0659,29.7808 C103.0659,29.7068 103.0659,29.5588 102.9919,29.4858 C102.9189,29.4108 102.9189,29.3378 102.8449,29.3378 C102.7709,29.2638 102.6969,29.2638 102.6229,29.2638 L102.4019,29.2638 C102.1809,29.2638 102.0329,29.3378 101.8109,29.4108 C101.5899,29.4858 101.5159,29.6328 101.5159,29.8548 L100.4089,29.8548 C100.4089,29.5588 100.4819,29.3378 100.6309,29.1898" id="Fill-50" fill="#0094D8"></path>
                <path d="M107.864,28.5255 L107.717,29.2635 L106.905,29.2635 L106.462,31.3305 L106.462,31.4785 L106.462,31.5515 L106.462,31.6995 C106.462,31.7735 106.536,31.7735 106.536,31.7735 L106.683,31.7735 L106.831,31.7735 L107.273,31.7735 L107.052,32.6595 L106.683,32.6595 L106.314,32.6595 L105.945,32.6595 C105.798,32.6595 105.723,32.5855 105.576,32.5115 C105.502,32.4375 105.354,32.3645 105.354,32.2905 C105.281,32.2165 105.281,32.0685 105.281,31.8475 L105.281,31.6995 C105.281,31.6265 105.281,31.5515 105.354,31.4785 L105.798,29.2635 L105.059,29.2635 L105.207,28.5255 L105.945,28.5255 L106.24,27.2705 L107.422,27.2705 L107.126,28.5255 L107.864,28.5255 Z" id="Fill-52" fill="#0094D8"></path>
                <path d="M109.1931,31.4044 C109.1931,31.5514 109.2661,31.6264 109.3401,31.6994 C109.4151,31.7734 109.4881,31.8474 109.6351,31.9214 C109.7101,31.9954 109.8571,31.9954 110.0051,31.9954 C110.2261,31.9954 110.3741,31.9214 110.5951,31.8474 C110.7431,31.6994 110.8901,31.5514 110.9641,31.4044 C111.0381,31.2574 111.1121,31.0354 111.1861,30.8134 C111.2591,30.5924 111.2591,30.4444 111.2591,30.2234 C111.2591,29.9274 111.1861,29.7074 111.0381,29.5584 C110.8901,29.4114 110.6701,29.3384 110.3741,29.3384 C110.1521,29.3384 110.0051,29.4114 109.8571,29.4854 C109.7101,29.6334 109.5621,29.7804 109.4881,29.9274 C109.4151,30.0754 109.3401,30.2974 109.2661,30.5184 C109.1931,30.7404 109.1931,30.8874 109.1931,31.1094 L109.1931,31.4044 M108.1601,30.0754 C108.3071,29.7804 108.4551,29.4854 108.6761,29.2634 C108.8971,29.0424 109.1191,28.8204 109.4151,28.6734 C109.7101,28.5254 110.0791,28.4524 110.4481,28.4524 C110.7431,28.4524 111.0381,28.4524 111.2591,28.5254 C111.4811,28.5994 111.7031,28.6734 111.8501,28.8204 C111.9981,28.9684 112.1451,29.1164 112.2191,29.3384 C112.2931,29.5584 112.3671,29.8544 112.3671,30.1494 C112.3671,30.5184 112.2931,30.8874 112.2191,31.1824 C112.0721,31.4784 111.9241,31.7734 111.7031,31.9954 C111.4811,32.2164 111.2591,32.4374 110.9641,32.5854 C110.6701,32.7334 110.3001,32.8064 109.9311,32.8064 C109.3401,32.8064 108.8971,32.6594 108.5281,32.3644 C108.1601,32.0684 108.0111,31.6264 108.0111,31.0354 C108.0111,30.6664 108.0861,30.3714 108.1601,30.0754" id="Fill-54" fill="#0094D8"></path>
                <path d="M114.8025,28.5255 L114.6555,29.2635 C114.8025,28.9685 114.9505,28.7475 115.2455,28.5995 C115.5405,28.4525 115.7625,28.3785 116.1315,28.3785 L116.5005,28.3785 L116.2795,29.4855 C116.2055,29.4855 116.1315,29.4855 116.0575,29.4115 L115.8365,29.4115 C115.6145,29.4115 115.3935,29.4855 115.2455,29.5585 C115.0985,29.6325 114.9505,29.7075 114.8765,29.8545 C114.8025,30.0025 114.6555,30.1495 114.6555,30.2965 C114.5815,30.4445 114.5075,30.6665 114.5075,30.8135 L114.1385,32.6595 L112.9575,32.6595 L113.8435,28.4525 L114.8025,28.4525 L114.8025,28.5255 Z" id="Fill-56" fill="#0094D8"></path>
            </g>
        </g>
    </g>
</svg>