<?xml version="1.0" encoding="UTF-8"?>
<svg id="Layer_1" data-name="Layer 1" xmlns="http://www.w3.org/2000/svg" viewBox="0 0 1596.45 376.22">
  <defs>
    <style>
      .cls-1, .cls-2, .cls-3 {
        fill: #100030;
      }

      .cls-2, .cls-4 {
        fill-rule: evenodd;
      }

      .cls-5 {
        fill: #bb00d4;
      }

      .cls-6 {
        fill: #fff;
      }

      .cls-4 {
        fill: #f050f8;
      }

      .cls-3 {
        opacity: .1;
      }

      .cls-7 {
        fill: #9a0d9f;
      }
    </style>
  </defs>
  <g>
    <path class="cls-4" d="M246.49,30.61c-18.78-7.12-39.15-11.01-60.42-11.01-5.53,0-11,.26-16.39.78,34.73,64.57,55.16,143.55,55.16,228.84,0,16.36-.75,32.5-2.21,48.34,8.07-5.52,14.99-11.27,18.47-15.79,5.52-7.13,8.3-14.02,11.29-27.26,4.47-20.25,2.21-37.55-8.31-70.81-7.75-24.26-14.26-53.81-16.71-76.04-1.26-12.41-.25-28.98,3.12-40.72,2.44-8.51,7.03-24.51,16.01-36.32ZM355.51,113.17c7.96-3.61,12.54-9.54,15.95-16.49,3.68-8.17,6.48-20-2.92-36.46-6.85-12.47-22.43-23.44-38.44-23.58-11.21-.1-21.02,3.25-28.73,7.47,23.12,18.28,41.79,41.92,54.14,69.06ZM338.65,266.45c-.51-53.76-21.18-86.93-45.22-123.19-22.25-33.56-19.38-70.67-8.17-86.42.79-.96,1.81-2.06,3.03-3.24,21.54,16.15,39.13,37.28,51.07,61.67-7.64-1.19-15.33-4.96-20.68-9.9,0,0-12.73-8.78-8.09.24,4.93,9.87,11.46,15.77,25.83,19.97,2.76.8,5.5,1.3,8.19,1.55,7.75,19.49,12.02,40.75,12.02,63.01,0,27.43-6.47,53.34-17.97,76.3ZM360.65,125.67c17.64-4.98,31.17-20.37,33.92-35.94,4.13-23.42.3-48.61-21.38-68.15-14.5-12.87-40.67-21.4-63.15-20.41-15.74.54-36.8,6.15-51.46,17.59-22.29-9.44-46.8-14.67-72.53-14.67C88.27,4.09,8.09,79.54.58,175.41c-.38,4.68-.58,9.41-.58,14.18v.28s0,.29,0,.29c0,102.76,83.3,186.07,186.07,186.07s186.07-83.3,186.07-186.07c0-22.67-4.05-44.39-11.48-64.48Z"/>
    <path class="cls-3" d="M205.14,358.45c2.14-19.84,3.25-40.14,3.25-60.79,0-103.87-28.03-198.73-74.24-271.03C64.97,48.31,14.78,112.91,14.78,189.24c0,94.09,76.28,170.37,170.37,170.37,6.76,0,13.43-.39,19.99-1.16Z"/>
    <path class="cls-6" d="M71.71,272.56c4.38,11.95,13.81,21.96,26.71,26.66,23.21,8.45,48.87-3.52,57.32-26.73,3.73-10.26,3.48-21,.03-30.52l-84.05,30.59Z"/>
    <path class="cls-2" d="M134.93,270.28c-1.75,4.8-7.06,7.28-11.86,5.53-4.8-1.75-7.28-7.06-5.53-11.86,1.75-4.8,7.06-7.28,11.86-5.53,4.8,1.75,7.28,7.06,5.53,11.86ZM87.36,266.86c3.64,6.7,9.65,12.15,17.38,14.96,16.81,6.12,35.4-2.55,41.52-19.36,2.12-5.82,2.46-11.86,1.31-17.51l-60.2,21.91Z"/>
    <path class="cls-5" d="M216.65,336.71c7.87-4.69,16.22-10.38,24.95-17.54,34.67-35.43,36.46-66.6,30.9-101.23-2.75-17.43-13.7-52.15-19.75-62.5-.5-.85-9.83-25.35-9.83-25.35-16.12-50.15-4.64-104.1,41.55-124.44.37-.16-81.78,21.28-62.41,101.82,5.22,21.72,13.41,51.72,21.16,75.96,10.51,33.22,12.77,50.51,8.3,70.74-2.99,13.22-5.77,20.11-11.28,27.23-4.46,5.78-11.2,11.4-18.46,16.38-1.22,13.19-2.94,26.17-5.12,38.92Z"/>
    <path class="cls-5" d="M309.79,101.89c.88.91,1.91,1.87,3.12,2.9,10.33,8.79,24.3,17.06,40.54,14.06,10.86-2,26.35-14.62,26.35-37.21,0-31.64-24.63-54.21-51.69-54.21-25.65,0-46.7,18.23-48.81,43.29,1.23-5.36,3.22-9.96,5.98-13.83.79-.96,1.81-2.06,3.03-3.23,0,0,0-.55,6.31-5.25,3.87-2.88,6.76-4.24,6.76-4.24,7.7-4.22,17.5-7.56,28.69-7.47,15.99.14,31.55,11.09,38.4,23.55,9.39,16.44,6.59,28.26,2.91,36.42-3.41,6.94-7.98,12.87-15.93,16.47,0,0-1.85.97-8.07,1.78-6.21.81-8.07.33-8.07.33-7.64-1.19-15.31-4.95-20.66-9.89,0,0-7.47-5.15-8.87-3.5Z"/>
    <path class="cls-7" d="M251.2,259.44c1.12,1.36,2.16,2.79,3.11,4.27,5.96,9.2,11.33,23.92.41,31.08-6.48,4.22-16.03,2.72-21.8-3.06-5.68-5.7-7.36-14.89-4.61-22.16,2.23-5.82,7.65-12.47,14.11-13.89,3.51-.68,6.51,1.13,8.78,3.76Z"/>
    <path class="cls-1" d="M232.57,275.48c.56-3.68,2.02-7.13,4.24-10.03,1.53-2.28,4.1-4.56,6.83-3.84,1.98.46,3.32,2.41,4.1,4.3,2.84,7.09-.97,16-7.67,18.98-2.43,1.04-5.11,1.39-6.41-1.52-1.11-2.5-1.49-5.24-1.09-7.89Z"/>
    <path class="cls-7" d="M250.89,207.01c1.56.64,3.05,1.41,4.46,2.31,9.03,5.24,20.02,15.36,13.96,26.19-3.64,6.49-12.53,9.32-19.89,6.92-7.36-2.41-12.73-9.36-13.51-16.76-.61-5.97,1.05-13.97,5.95-17.95,2.67-2.17,6-1.87,9.02-.7Z"/>
    <path class="cls-1" d="M244.29,231.04c-1.64-3.59-2.38-7.48-2.15-11.35,0-2.94.76-6.33,3.59-7.38,1.95-.79,4.31.23,6.14,1.43,6.75,4.51,8.55,14.54,4.52,21.04-1.52,2.44-3.7,4.26-6.54,2.51-2.45-1.34-4.29-3.94-5.55-6.25Z"/>
    <path class="cls-7" d="M241.42,163.21c1.38.55,2.73,1.18,4.05,1.88,8.06,4.28,17.92,12.78,12.79,22.38-3.01,5.77-10.77,8.55-17.23,6.7-6.46-1.85-11.44-7.89-12.23-14.25-.65-5.2.69-12.24,4.88-15.82,2.11-2.05,4.96-1.94,7.74-.9Z"/>
    <path class="cls-1" d="M236.48,183.92c-1.48-2.81-2.15-5.94-1.97-9.06.02-2.32.47-5.13,2.83-6.12,1.66-.65,3.5,0,4.93.89,5.57,3.51,7.2,11.51,4.02,16.83-1.21,1.98-2.93,3.53-5.27,2.19-1.97-.8-3.45-2.84-4.54-4.73Z"/>
    <path class="cls-7" d="M230.8,124.27c1.11.62,2.18,1.31,3.21,2.05,6.38,4.71,13.68,13.21,7.94,20.74-3.37,4.51-10.42,5.97-15.68,3.59-5.35-2.39-8.68-8.08-8.58-13.7.11-4.49,2.22-10.39,6.27-12.94,2.17-1.4,4.66-.86,6.85.25Z"/>
    <path class="cls-1" d="M223.9,141.43c-.93-2.48-.86-5.21-.47-7.91.35-1.97,1.16-4.32,3.16-4.8,1.44-.31,2.93.43,4.07,1.35,4.26,3.57,4.56,10.63,1.23,14.68-1.3,1.48-2.91,2.62-4.79,1.22-1.53-1.17-2.65-2.75-3.21-4.54Z"/>
    <path class="cls-7" d="M227.2,86c.83.84,1.59,1.74,2.28,2.69,4.45,5.94,8.73,15.6,1.34,20.91-4.45,3.16-11.21,2.66-15.39-.9-4.18-3.56-5.64-9.68-3.87-14.75,1.37-4.04,4.99-8.81,9.49-10.1,2.24-.56,4.46.58,6.14,2.16Z"/>
    <path class="cls-1" d="M214.88,99.29c-.05-2.75.61-5.45,1.91-7.87.93-1.82,2.47-3.94,4.66-3.77.77.12,1.5.41,2.13.84.64.43,1.16,1,1.54,1.66,3.06,4.79,1.33,11.68-3.41,14.78-1.7,1.1-3.72,1.73-5.1-.16-1.18-1.43-1.62-3.57-1.73-5.48Z"/>
    <path class="cls-7" d="M234.88,51.19c.51,1.01.95,2.04,1.32,3.1,2.28,6.58,3.24,16.45-5.07,19.24-5.02,1.65-11.05-.66-13.8-5.08-2.76-4.42-2.29-10.3.86-14.37,2.5-3.3,7.21-6.6,11.69-6.51,2.28.09,3.95,1.67,5.01,3.62Z"/>
    <path class="cls-1" d="M219.71,58.89c.79-2.42,2.16-4.62,3.99-6.43,1.39-1.35,3.31-2.75,5.22-2.1.65.3,1.22.75,1.65,1.3.43.56.72,1.2.84,1.88,1.4,4.97-2.32,10.59-7.28,12.08-1.87.58-3.82.54-4.44-1.47-.65-1.6-.41-3.66.02-5.28Z"/>
    <path class="cls-7" d="M251.44,23.05c.1.95.12,1.9.08,2.85-.29,5.91-2.64,14.04-10.22,13.89-4.5-.1-8.61-3.63-9.43-7.89-.82-4.26,1.46-8.84,5.31-11.22,3.05-1.9,7.91-3.2,11.47-1.93,1.76.75,2.62,2.45,2.8,4.31Z"/>
    <path class="cls-1" d="M236.92,25.1c1.25-1.61,2.93-2.86,4.87-3.63,1.39-.62,3.27-1.13,4.41-.21.83.69,1,1.91.87,2.98-.46,4.04-4.84,7.17-8.94,6.99-1.49-.07-2.95-.59-2.9-2.28.18-1.41.76-2.74,1.69-3.85Z"/>
    <path class="cls-7" d="M276.71,5.83c-.16.74-.39,1.47-.7,2.16-1.73,4.46-9.26,6.33-11.11,5.93-3.62-.77-6.1-2.63-5.63-6.18.29-1.75,1.1-3.37,2.33-4.67,1.23-1.3,2.84-2.24,4.62-2.68,2.84-.71,6.98-.55,9.33,1.38,1.29,1.01,1.43,2.55,1.17,4.06Z"/>
    <path class="cls-1" d="M264.2,3.3c1.31-.77,2.87-1.34,4.54-1.68,1.21-.29,2.8-.44,3.57.11.58.4.42,1.04.15,1.57-1.14,2.04-5.12,3.5-8.42,3.25-1.22-.11-2.27-.4-1.83-1.3.37-.73,1.06-1.4,1.99-1.95Z"/>
  </g>
  <g>
    <path class="cls-6" d="M464.7,94.96h62.2v69.74l52.9-69.74h72.3l-64.86,80.92,66.19,105.41h-74.16l-36.41-59.09-15.95,19.43v39.66h-62.2V94.96Z"/>
    <path class="cls-6" d="M653.43,94.96h90.91c32.96,0,53.96,8.25,66.99,21.3,11.16,11.18,17.01,25.02,17.01,44.19v.53c0,27.15-14.09,46.05-36.68,56.96l43.33,63.35h-70.97l-35.09-53.24h-13.29v53.24h-62.2V94.96ZM742.47,183.6c14.89,0,23.92-6.65,23.92-18.1v-.53c0-11.98-9.3-17.83-23.66-17.83h-27.11v36.47h26.85Z"/>
    <path class="cls-6" d="M975.6,94.93l77.87,186.36h-67.52l-9.83-25.02h-65.12l-9.57,25.02h-66.45l77.87-186.36h62.75ZM960.7,212.09l-17.01-45.25-17.01,45.25h34.02Z"/>
    <path class="cls-6" d="M1053.47,94.96h62.2v69.74l52.89-69.74h72.3l-64.86,80.92,66.18,105.41h-74.16l-36.41-59.09-15.95,19.43v39.66h-62.2V94.96Z"/>
    <path class="cls-6" d="M1242.19,94.96h158.69v51.11h-97.55v18.9h81.34v44.99h-81.34v20.23h97.55v51.11h-158.69V94.96Z"/>
    <path class="cls-6" d="M1410.39,94.96h58.21l66.18,82.25v-82.25h61.67v186.33h-55.29l-69.11-85.98v85.98h-61.67V94.96Z"/>
  </g>
</svg>