<svg width="458" height="86" viewBox="0 0 458 86" xmlns="http://www.w3.org/2000/svg">
<path fill-rule="evenodd" clip-rule="evenodd" d="M0.000237163 57.9327C-0.000584403 57.9533 0.00105873 57.9746 0.000237166 57.9951L9.12098 57.9951C10.1398 41.8812 23.6061 29.1116 40.0002 29.1116C56.3744 29.1116 69.8005 41.8781 70.8479 57.9951L80 57.9951C78.9598 36.8199 61.4609 19.9999 40.0006 19.9999C18.5612 19.9999 1.07189 36.7858 0.00128986 57.9321L0.000237163 57.9327Z" />
<path d="M79.999 61.9736C79.8311 65.4532 79.2172 68.8128 78.2188 72L1.78027 72C0.781719 68.8129 0.168121 65.4531 0 61.9736L79.999 61.9736Z" />
<path fill-rule="evenodd" clip-rule="evenodd" d="M13.1359 57.9941L24.0306 57.9941C25.0182 50.0705 31.8155 43.94 39.9996 43.94C48.164 43.94 54.9145 50.0976 55.9373 57.9941L66.8632 57.9941C65.8337 44.0295 54.2241 33.0898 39.9992 33.0898C25.7638 33.0898 14.1512 44.0524 13.1353 57.9941L13.1359 57.9941Z" />
<path fill-rule="evenodd" clip-rule="evenodd" d="M28.0777 57.9941L51.8897 57.9941C50.9136 52.2634 45.9955 47.8891 39.9984 47.8891C33.9818 47.8891 29.0314 52.2576 28.0767 57.9941L28.0777 57.9941Z" />
<path d="M147.471 71.7284H104V8.47544H117.214V59.9521H147.471V71.7284Z" />
<path d="M153.353 59.7737C153.353 51.9228 159.577 47.5513 167.428 46.4808L179.014 44.8749C181.695 44.518 182.557 43.269 182.557 41.7524C182.557 38.6299 179.971 36.0427 174.609 36.0427C169.056 36.0427 165.992 39.3436 165.609 43.1798L154.31 40.9495C155.076 34.08 161.875 26.4967 174.514 26.4967C189.451 26.4967 195.004 34.3476 195.004 43.1798V64.7697C195.004 67.0893 195.292 70.2118 195.579 71.7284H183.897C183.61 70.5686 183.418 68.1599 183.418 66.4648C181.025 69.9441 176.524 72.9774 169.535 72.9774C159.481 72.9774 153.353 66.6432 153.353 59.7737ZM172.216 64.1452C177.578 64.1452 182.557 61.7364 182.557 53.9748V52.0121L171.928 53.5287C168.673 53.9748 166.088 55.6698 166.088 59.06C166.088 61.6472 168.098 64.1452 172.216 64.1452Z" />
<path d="M222.306 14.7204V27.835H231.785V38.3623H222.306V56.7404C222.306 60.5766 224.221 61.8256 227.86 61.8256C229.392 61.8256 231.115 61.6472 231.785 61.4688V71.2824C230.636 71.7284 228.338 72.3529 224.604 72.3529C215.412 72.3529 209.667 67.2677 209.667 58.7924V38.3623H201.145V27.835H203.539C208.518 27.835 210.816 24.8017 210.816 20.8762V14.7204H222.306Z" />
<path d="M254.38 71.7284H241.645V27.835H254.38V71.7284ZM240.113 13.4714C240.113 9.36758 243.656 6.06665 247.965 6.06665C252.369 6.06665 255.816 9.36758 255.816 13.4714C255.816 17.3969 252.369 20.6978 247.965 20.6978C243.656 20.6978 240.113 17.3969 240.113 13.4714Z" />
<path d="M282.76 14.7204V27.835H292.239V38.3623H282.76V56.7404C282.76 60.5766 284.675 61.8256 288.313 61.8256C289.845 61.8256 291.569 61.6472 292.239 61.4688V71.2824C291.09 71.7284 288.792 72.3529 285.058 72.3529C275.866 72.3529 270.121 67.2677 270.121 58.7924V38.3623H261.599V27.835H263.993C268.972 27.835 271.27 24.8017 271.27 20.8762V14.7204H282.76Z" />
<path d="M333.211 71.7284C333.02 70.8363 332.828 68.7844 332.828 67.0001C330.243 71.1039 324.785 72.8882 319.806 72.8882C308.412 72.8882 301.901 65.1266 301.901 55.5806V27.835H314.636V53.1718C314.636 58.0786 317.317 62.0041 323.253 62.0041C328.903 62.0041 332.158 58.4355 332.158 53.3503V27.835H344.893V63.7884C344.893 67.1785 345.18 70.2118 345.372 71.7284H333.211Z" />
<path d="M402.246 7.13723V63.7884C402.246 66.7324 402.438 69.9441 402.629 71.7284H390.469C390.277 70.8363 389.99 68.6951 389.99 66.6432C387.884 70.1226 383.096 72.799 376.776 72.799C363.371 72.799 353.796 62.9854 353.796 49.6925C353.796 36.8456 363.084 26.7644 376.394 26.7644C384.532 26.7644 388.362 29.8869 389.703 32.2065V7.13723H402.246ZM366.627 49.6925C366.627 57.5433 371.606 62.1825 378.309 62.1825C384.82 62.1825 389.894 57.5433 389.894 49.6033C389.894 41.7524 384.82 37.3809 378.309 37.3809C371.797 37.3809 366.627 41.8416 366.627 49.6925Z" />
<path d="M424.392 44.7857H445.457C445.265 40.4142 442.201 36.1319 434.924 36.1319C428.317 36.1319 424.679 40.771 424.392 44.7857ZM446.701 56.2051L457.33 59.1492C454.936 66.7324 447.467 73.0667 435.882 73.0667C422.955 73.0667 411.561 64.4129 411.561 49.6033C411.561 35.5966 422.668 26.4967 434.733 26.4967C449.287 26.4967 458 35.1505 458 49.2464C458 50.9415 457.809 52.7258 457.809 52.9042H424.104C424.392 58.7031 429.658 62.8962 435.977 62.8962C441.914 62.8962 445.169 60.1306 446.701 56.2051Z" />
</svg>
