<svg xmlns="http://www.w3.org/2000/svg" xmlns:xlink="http://www.w3.org/1999/xlink" width="500" zoomAndPan="magnify" viewBox="0 0 375 112.499997" height="150" preserveAspectRatio="xMidYMid meet" version="1.2"><defs><clipPath id="edad14ce18"><path d="M 346 41 L 371.546875 41 L 371.546875 71 L 346 71 Z M 346 41 "/></clipPath><clipPath id="8edc0fa377"><path d="M 3.433594 37.824219 L 71 37.824219 L 71 74.410156 L 3.433594 74.410156 Z M 3.433594 37.824219 "/></clipPath></defs><g id="830b84abd3"><path style=" stroke:none;fill-rule:nonzero;fill:#000000;fill-opacity:1;" d="M 95.503906 67.203125 L 110.054688 67.203125 L 110.054688 70.425781 L 91.933594 70.425781 L 91.933594 41.398438 L 95.503906 41.398438 L 95.503906 67.203125 "/><path style=" stroke:none;fill-rule:nonzero;fill:#000000;fill-opacity:1;" d="M 133.957031 70.425781 L 130.390625 70.425781 L 130.390625 41.398438 L 133.957031 41.398438 L 133.957031 70.425781 "/><path style=" stroke:none;fill-rule:nonzero;fill:#000000;fill-opacity:1;" d="M 187.859375 70.425781 L 184.328125 70.425781 L 184.328125 49.003906 L 173.425781 70.425781 L 170.902344 70.425781 L 159.996094 49.003906 L 159.996094 70.425781 L 156.425781 70.425781 L 156.425781 41.398438 L 159.996094 41.398438 L 172.183594 65.148438 L 184.289062 41.398438 L 187.859375 41.398438 L 187.859375 70.425781 "/><path style=" stroke:none;fill-rule:nonzero;fill:#000000;fill-opacity:1;" d="M 213.933594 70.425781 L 210.363281 70.425781 L 210.363281 41.398438 L 213.933594 41.398438 L 213.933594 70.425781 "/><path style=" stroke:none;fill-rule:nonzero;fill:#000000;fill-opacity:1;" d="M 258.328125 70.425781 L 254.992188 70.425781 L 239.972656 48.113281 L 239.972656 70.425781 L 236.402344 70.425781 L 236.402344 41.398438 L 239.742188 41.398438 L 254.796875 63.789062 L 254.796875 41.398438 L 258.328125 41.398438 L 258.328125 70.425781 "/><path style=" stroke:none;fill-rule:nonzero;fill:#000000;fill-opacity:1;" d="M 284.402344 70.425781 L 280.832031 70.425781 L 280.832031 41.398438 L 284.402344 41.398438 L 284.402344 70.425781 "/><path style=" stroke:none;fill-rule:nonzero;fill:#000000;fill-opacity:1;" d="M 329.1875 44.578125 L 318.398438 44.578125 L 318.398438 70.425781 L 314.828125 70.425781 L 314.828125 44.578125 L 304.039062 44.578125 L 304.039062 41.398438 L 329.1875 41.398438 L 329.1875 44.578125 "/><g clip-rule="nonzero" clip-path="url(#edad14ce18)"><path style=" stroke:none;fill-rule:nonzero;fill:#000000;fill-opacity:1;" d="M 360.578125 58.785156 L 360.578125 70.425781 L 357.046875 70.425781 L 357.046875 58.785156 L 346.023438 41.398438 L 350.214844 41.398438 L 358.832031 54.941406 L 367.367188 41.398438 L 371.558594 41.398438 L 360.578125 58.785156 "/></g><g clip-rule="nonzero" clip-path="url(#8edc0fa377)"><path style=" stroke:none;fill-rule:nonzero;fill:#000000;fill-opacity:1;" d="M 52.414062 38.144531 L 21.300781 69.257812 L 8.179688 56.132812 L 21.628906 42.683594 L 32.980469 53.988281 L 35.355469 51.613281 L 21.625 37.941406 L 3.433594 56.132812 L 21.300781 74.003906 L 52.414062 42.890625 L 65.378906 55.855469 L 53.054688 69.210938 L 40.957031 57.175781 L 38.585938 59.550781 L 53.160156 74.046875 L 70.03125 55.761719 L 52.414062 38.144531 "/></g></g></svg>