<svg width="500" height="150" viewBox="0 0 500 150" fill="none" xmlns="http://www.w3.org/2000/svg">
<g clip-path="url(#clip0_1_4)">
<path d="M42.3353 92.0958C46.4072 92.0958 49.6916 93.3443 52.1856 95.8383C54.6796 98.3323 55.9282 101.817 55.9282 106.287V125.749H47.5449V107.425C47.5449 104.829 46.8862 102.844 45.5689 101.467C44.2515 100.09 42.4551 99.4012 40.1796 99.4012C37.9042 99.4012 36.0988 100.09 34.7605 101.467C33.4222 102.844 32.7545 104.829 32.7545 107.425V125.749H24.3713V107.425C24.3713 104.829 23.7126 102.844 22.3952 101.467C21.0778 100.09 19.2814 99.4012 17.006 99.4012C14.6916 99.4012 12.8653 100.09 11.5269 101.467C10.1886 102.844 9.52096 104.829 9.52096 107.425V125.749H1.13773V92.5748H9.52096V96.5868C10.5988 95.1886 11.985 94.0928 13.6826 93.2934C15.3802 92.494 17.2455 92.0958 19.2814 92.0958C21.8772 92.0958 24.1916 92.6437 26.2275 93.7425C28.2635 94.8413 29.8413 96.4072 30.9581 98.4431C32.0359 96.5269 33.6018 94.991 35.6587 93.8323C37.6942 92.68 39.9963 92.0812 42.3353 92.0958ZM61.7365 109.042C61.7365 105.689 62.4042 102.716 63.7425 100.12C65.0808 97.5239 66.8952 95.5299 69.1916 94.1317C71.488 92.7335 74.0509 92.0359 76.8862 92.0359C79.3623 92.0359 81.527 92.5359 83.3832 93.5329C85.2395 94.5299 86.7276 95.7874 87.8443 97.3054V92.5748H96.2874V125.749H87.8443V120.898C86.7665 122.455 85.2785 123.743 83.3832 124.76C81.488 125.778 79.3024 126.287 76.8264 126.287C74.1276 126.314 71.4778 125.566 69.1916 124.132C66.8952 122.695 65.0808 120.668 63.7425 118.054C62.4042 115.44 61.7365 112.434 61.7365 109.042ZM87.8443 109.162C87.8443 107.126 87.4461 105.38 86.6467 103.922C85.9047 102.523 84.7842 101.361 83.4132 100.569C82.0569 99.7904 80.5988 99.4012 79.0419 99.4012C77.5292 99.3902 76.0409 99.7829 74.7305 100.539C73.4132 101.296 72.3443 102.404 71.527 103.862C70.7096 105.32 70.2994 107.045 70.2994 109.042C70.2994 111.039 70.7096 112.784 71.527 114.281C72.3443 115.778 73.4222 116.925 74.7605 117.725C76.0502 118.51 77.5317 118.925 79.0419 118.922C80.5988 118.922 82.0569 118.533 83.4132 117.754C84.7842 116.962 85.9047 115.8 86.6467 114.401C87.4461 112.943 87.8443 111.198 87.8443 109.162ZM108.743 88.6227C107.266 88.6227 106.039 88.1527 105.06 87.2156C104.081 86.2784 103.593 85.1108 103.593 83.7126C103.593 82.3144 104.081 81.1467 105.06 80.2096C106.039 79.2724 107.266 78.8024 108.743 78.8024C110.219 78.8024 111.446 79.2724 112.425 80.2096C113.404 81.1467 113.892 82.3144 113.892 83.7126C113.892 85.1108 113.404 86.2784 112.425 87.2156C111.446 88.1527 110.219 88.6227 108.743 88.6227ZM112.874 92.5748V125.749H104.491V92.5748H112.874ZM129.521 81.4371V125.749H121.138V81.4371H129.521ZM178.982 92.0958C183.054 92.0958 186.338 93.3443 188.832 95.8383C191.326 98.3323 192.575 101.817 192.575 106.287V125.749H184.192V107.425C184.192 104.829 183.533 102.844 182.216 101.467C180.898 100.09 179.102 99.4012 176.826 99.4012C174.551 99.4012 172.746 100.09 171.407 101.467C170.069 102.844 169.401 104.829 169.401 107.425V125.749H161.018V107.425C161.018 104.829 160.359 102.844 159.042 101.467C157.725 100.09 155.928 99.4012 153.653 99.4012C151.338 99.4012 149.512 100.09 148.174 101.467C146.835 102.844 146.168 104.829 146.168 107.425V125.749H137.784V92.5748H146.168V96.5868C147.246 95.1886 148.632 94.0928 150.329 93.2934C152.027 92.494 153.892 92.0958 155.928 92.0958C158.524 92.0958 160.838 92.6437 162.874 93.7425C164.91 94.8413 166.488 96.4072 167.605 98.4431C168.683 96.5269 170.249 94.991 172.305 93.8323C174.341 92.68 176.643 92.0812 178.982 92.0958ZM231.377 108.443C231.377 109.641 231.296 110.719 231.138 111.677H206.886C207.087 114.072 207.925 115.949 209.401 117.305C210.877 118.662 212.695 119.341 214.85 119.341C217.964 119.341 220.18 118.003 221.497 115.329H230.539C229.581 118.524 227.746 121.147 225.03 123.204C222.314 125.26 218.982 126.287 215.03 126.287C211.835 126.287 208.973 125.578 206.437 124.162C203.901 122.746 201.925 120.74 200.509 118.144C199.093 115.548 198.383 112.554 198.383 109.162C198.383 105.728 199.081 102.716 200.479 100.12C201.877 97.5239 203.832 95.5299 206.347 94.1317C208.862 92.7335 211.758 92.0359 215.03 92.0359C218.183 92.0359 221.009 92.7156 223.503 94.0718C225.997 95.4281 227.934 97.3563 229.311 99.8503C230.689 102.344 231.377 105.21 231.377 108.443ZM222.695 106.048C222.656 103.892 221.877 102.165 220.359 100.868C218.841 99.5718 216.985 98.9222 214.79 98.9222C212.716 98.9222 210.967 99.5509 209.551 100.808C208.135 102.066 207.266 103.811 206.946 106.048H222.695ZM247.246 99.4611V115.509C247.246 116.626 247.515 117.434 248.054 117.934C248.593 118.434 249.5 118.683 250.778 118.683H254.671V125.749H249.401C242.335 125.749 238.802 122.314 238.802 115.449V99.4611H234.85V92.5748H238.802V84.3712H247.246V92.5748H254.671V99.4611H247.246ZM291.557 108.443C291.557 109.641 291.476 110.719 291.317 111.677H267.066C267.266 114.072 268.105 115.949 269.581 117.305C271.057 118.662 272.874 119.341 275.03 119.341C278.144 119.341 280.359 118.003 281.677 115.329H290.719C289.76 118.524 287.925 121.147 285.21 123.204C282.494 125.26 279.162 126.287 275.21 126.287C272.015 126.287 269.153 125.578 266.617 124.162C264.081 122.746 262.105 120.74 260.689 118.144C259.272 115.548 258.563 112.554 258.563 109.162C258.563 105.728 259.26 102.716 260.659 100.12C262.057 97.5239 264.012 95.5299 266.527 94.1317C269.042 92.7335 271.937 92.0359 275.21 92.0359C278.362 92.0359 281.189 92.7156 283.683 94.0718C286.177 95.4281 288.114 97.3563 289.491 99.8503C290.868 102.344 291.557 105.21 291.557 108.443ZM282.874 106.048C282.835 103.892 282.057 102.165 280.539 100.868C279.021 99.5718 277.165 98.9222 274.97 98.9222C272.895 98.9222 271.147 99.5509 269.731 100.808C268.314 102.066 267.446 103.811 267.126 106.048H282.874ZM312.395 126.287C309.201 126.287 306.326 125.578 303.772 124.162C301.219 122.746 299.213 120.74 297.755 118.144C296.296 115.548 295.569 112.554 295.569 109.162C295.569 105.769 296.317 102.775 297.814 100.18C299.256 97.6384 301.383 95.5532 303.952 94.1617C306.548 92.7455 309.44 92.0359 312.635 92.0359C315.829 92.0359 318.722 92.7455 321.317 94.1617C323.887 95.5532 326.013 97.6384 327.455 100.18C328.952 102.775 329.701 105.769 329.701 109.162C329.701 112.554 328.931 115.548 327.395 118.144C325.914 120.685 323.759 122.768 321.168 124.162C318.554 125.578 315.629 126.287 312.395 126.287ZM312.395 118.982C313.894 118.987 315.369 118.606 316.677 117.874C318.015 117.135 319.081 116.027 319.88 114.551C320.68 113.075 321.078 111.278 321.078 109.162C321.078 106.009 320.249 103.584 318.593 101.886C316.937 100.189 314.91 99.3413 312.515 99.3413C311.389 99.3158 310.27 99.5295 309.233 99.9682C308.196 100.407 307.263 101.061 306.497 101.886C304.88 103.584 304.072 106.009 304.072 109.162C304.072 112.314 304.859 114.74 306.437 116.437C308.015 118.135 310 118.982 312.395 118.982ZM344.252 97.7245C345.284 96.0107 346.737 94.5887 348.473 93.5928C350.21 92.5958 352.195 92.0958 354.431 92.0958V100.898H352.216C349.581 100.898 347.596 101.518 346.258 102.754C344.919 103.991 344.252 106.147 344.252 109.222V125.749H335.868V92.5748H344.252V97.7245Z" fill="#04143A"/>
<path d="M393.186 16.7455L402.578 34.0269L402.5 34.1048L350.377 0L350.299 0.0778443L391.03 63.8473C391.03 63.9251 390.952 63.9251 390.952 64L373.473 57.7305L374.937 60.4072L387.102 81.9701C392.547 91.5644 398.351 100.95 404.503 110.108L418.132 128.689C421.057 132.281 424.06 135.725 427.524 138.781C433.916 144.44 441.383 147.88 449.853 149.18C459.093 150.557 467.949 149.257 476.186 144.898C488.506 138.476 496.359 128.458 499.054 114.925C501.826 101.24 498.437 89.006 489.428 78.2994C486.039 74.2455 481.958 70.8832 477.802 67.5958C470.41 61.8623 462.635 56.6617 454.626 51.6916L433.76 39.0748L406.195 23.6287L393.722 16.9012L393.26 16.6707C393.26 16.6707 393.183 16.6707 393.183 16.7485L393.186 16.7455ZM420.443 87.3952L391.416 41.8234C391.494 41.8234 391.494 41.7455 391.569 41.7455L436.844 71.6407L436.922 71.5629L430.53 59.7874L424.063 48.012C424.216 48.0898 424.371 48.1647 424.449 48.2425C431.189 51.866 437.79 55.743 444.237 59.8653C453.323 65.5988 462.332 71.488 470.799 78.0629C473.487 80.2227 476.106 82.4663 478.653 84.7904C479.422 85.479 480.039 86.2425 480.656 87.009C486.662 94.503 489.048 102.988 487.123 112.395C485.045 122.41 479.269 129.751 470.183 134.338C460.326 139.308 450.47 138.925 440.769 133.575C437.228 131.587 434.302 128.835 431.608 125.775C427.296 120.883 423.368 115.76 419.674 110.407C413.281 101.386 407.353 92.1317 401.734 82.6527C401.347 81.9641 400.886 81.2755 400.503 80.512L400.581 80.4341L420.446 87.3922L420.443 87.3952Z" fill="#FFDDE2"/>
<path d="M420.443 87.3952L400.731 80.4371L400.653 80.515L401.883 82.6557C407.457 92.1634 413.443 101.424 419.823 110.41L431.758 125.778C434.452 128.838 437.377 131.59 440.919 133.578C450.545 138.931 460.476 139.311 470.332 134.341C479.419 129.754 485.269 122.338 487.272 112.398C489.198 102.994 486.811 94.506 480.805 87.012C480.189 86.2485 479.497 85.4072 478.802 84.7934L470.949 78.0659C462.479 71.4132 453.47 65.6018 444.386 59.8683C437.919 55.8144 431.374 51.9162 424.599 48.2455C424.521 48.1677 424.446 48.1677 424.213 48.015L430.68 59.7904L437.072 71.5659L436.994 71.6437L391.719 41.7485C391.641 41.7485 391.641 41.8263 391.566 41.8263L420.44 87.3982L420.443 87.3952Z" fill="#FF486A"/>
<path d="M474.599 97.7395C474.449 97.512 474.222 97.2844 473.997 97.1347C473.847 97.0599 473.772 96.982 473.62 96.9072C473.317 96.7545 473.018 96.7545 472.716 96.7545H472.641L471.213 97.8144L471.138 97.8892L458.048 107.491L444.656 97.6617L443.302 96.6796H443C442.401 96.6844 441.827 96.9254 441.405 97.3503C440.982 97.7752 440.744 98.3498 440.742 98.9491V100.159V119.437C440.742 119.665 440.743 119.892 440.817 120.042C441.12 120.949 441.946 121.629 443 121.629H444.656V102.955L454.362 110.063L457.521 112.407L458.123 112.862L461.808 110.141L471.138 103.26V121.557H472.793C473.847 121.557 474.674 120.877 474.976 119.97C475.051 119.743 475.051 119.515 475.051 119.365V100.464V98.8772C474.976 98.5 474.901 98.1198 474.599 97.7425V97.7395Z" fill="white"/>
</g>
<defs>
<clipPath id="clip0_1_4">
<rect width="500" height="149.701" fill="white"/>
</clipPath>
</defs>
</svg>
