<svg width="315" height="100" viewBox="0 0 315 100" fill="none" xmlns="http://www.w3.org/2000/svg">
<path d="M71.5654 62.0342C73.4795 62.0342 75.032 63.5821 75.0322 65.4912C75.0322 67.4006 73.4796 68.9492 71.5654 68.9492C69.6514 68.949 68.0996 67.4004 68.0996 65.4912C68.0998 63.5822 69.6516 62.0344 71.5654 62.0342Z" fill="#5859A3"/>
<path d="M28.4346 31.3037C30.3485 31.304 31.9002 32.8517 31.9004 34.7607C31.9004 36.6699 30.3486 38.2175 28.4346 38.2178C26.5204 38.2178 24.9678 36.6701 24.9678 34.7607C24.9679 32.8515 26.5205 31.3037 28.4346 31.3037Z" fill="#5859A3"/>
<path fill-rule="evenodd" clip-rule="evenodd" d="M50 0C77.6142 8.95522e-06 100 22.3858 100 50C100 77.6142 77.6142 100 50 100C22.3858 100 4.1238e-06 77.6142 0 50C0 22.3858 22.3858 0 50 0ZM28.4346 25.9258C23.5429 25.9258 19.5773 29.8814 19.5771 34.7607C19.5771 39.6402 23.5428 43.5957 28.4346 43.5957C32.3862 43.5955 35.7335 41.0146 36.874 37.4502H40.7578C44.3733 37.4504 47.3047 40.374 47.3047 43.9805V56.2725C47.3047 62.849 52.649 68.1805 59.2422 68.1807H63.126C64.2664 71.7451 67.6138 74.327 71.5654 74.3271C76.4572 74.3271 80.4229 70.3707 80.4229 65.4912C80.4226 60.6119 76.4571 56.6563 71.5654 56.6562C67.6138 56.6564 64.2664 59.2382 63.126 62.8027H59.2422C55.6267 62.8026 52.6953 59.8789 52.6953 56.2725V43.9805C52.6953 37.4039 47.351 32.0724 40.7578 32.0723H36.874C35.7336 28.5078 32.3862 25.926 28.4346 25.9258Z" fill="#5859A3"/>
<path fill-rule="evenodd" clip-rule="evenodd" d="M148.149 32.4004C150.783 32.4004 153.199 32.85 155.399 33.75C157.599 34.65 159.516 35.9166 161.149 37.5498C162.816 39.1498 164.1 41.05 165 43.25C165.9 45.45 166.35 47.8667 166.35 50.5C166.35 53.0999 165.9 55.5167 165 57.75C164.1 59.9833 162.833 61.9165 161.199 63.5498C159.566 65.1831 157.633 66.4671 155.399 67.4004C153.199 68.3003 150.783 68.75 148.149 68.75C145.549 68.75 143.133 68.3004 140.899 67.4004C138.666 66.4671 136.733 65.1831 135.1 63.5498C133.5 61.9165 132.25 59.9833 131.35 57.75C130.45 55.5167 130 53.1 130 50.5C130 47.8667 130.45 45.45 131.35 43.25C132.25 41.05 133.516 39.1498 135.149 37.5498C136.816 35.9166 138.749 34.65 140.949 33.75C143.183 32.85 145.583 32.4004 148.149 32.4004ZM148.149 38.0498C145.85 38.0498 143.8 38.5838 142 39.6504C140.2 40.717 138.783 42.1998 137.75 44.0996C136.75 45.9663 136.25 48.1 136.25 50.5C136.25 52.9 136.75 55.0502 137.75 56.9502C138.783 58.8167 140.2 60.283 142 61.3496C143.8 62.4162 145.85 62.9502 148.149 62.9502C150.483 62.9502 152.533 62.4163 154.3 61.3496C156.1 60.283 157.5 58.8167 158.5 56.9502C159.533 55.0502 160.05 52.9 160.05 50.5C160.05 48.1 159.55 45.9663 158.55 44.0996C157.55 42.1998 156.149 40.717 154.35 39.6504C152.583 38.5837 150.516 38.0498 148.149 38.0498Z" fill="#1F2328"/>
<path fill-rule="evenodd" clip-rule="evenodd" d="M188.237 32.4004C190.871 32.4004 193.287 32.85 195.487 33.75C197.687 34.65 199.604 35.9166 201.237 37.5498C202.904 39.1498 204.188 41.05 205.088 43.25C205.988 45.45 206.438 47.8667 206.438 50.5C206.437 53.0999 205.988 55.5167 205.088 57.75C204.188 59.9833 202.92 61.9165 201.287 63.5498C199.654 65.1831 197.721 66.4671 195.487 67.4004C193.287 68.3003 190.871 68.75 188.237 68.75C185.637 68.75 183.221 68.3004 180.987 67.4004C178.754 66.4671 176.821 65.1831 175.188 63.5498C173.588 61.9165 172.337 59.9833 171.438 57.75C170.538 55.5167 170.088 53.1 170.088 50.5C170.088 47.8667 170.537 45.45 171.438 43.25C172.338 41.05 173.604 39.1498 175.237 37.5498C176.904 35.9166 178.837 34.65 181.037 33.75C183.27 32.85 185.671 32.4004 188.237 32.4004ZM188.237 38.0498C185.937 38.0498 183.888 38.5838 182.088 39.6504C180.288 40.717 178.871 42.1998 177.838 44.0996C176.838 45.9663 176.338 48.1 176.338 50.5C176.338 52.9 176.838 55.0502 177.838 56.9502C178.871 58.8167 180.288 60.283 182.088 61.3496C183.888 62.4162 185.937 62.9502 188.237 62.9502C190.571 62.9502 192.621 62.4163 194.388 61.3496C196.188 60.283 197.588 58.8168 198.588 56.9502C199.621 55.0502 200.138 52.9 200.138 50.5C200.138 48.1 199.638 45.9663 198.638 44.0996C197.638 42.1998 196.237 40.717 194.438 39.6504C192.671 38.5837 190.604 38.0498 188.237 38.0498Z" fill="#1F2328"/>
<path fill-rule="evenodd" clip-rule="evenodd" d="M270.415 32.4004C273.048 32.4004 275.465 32.85 277.665 33.75C279.865 34.65 281.782 35.9166 283.415 37.5498C285.082 39.1498 286.366 41.05 287.266 43.25C288.166 45.45 288.615 47.8667 288.615 50.5C288.615 53.0999 288.166 55.5167 287.266 57.75C286.366 59.9833 285.098 61.9165 283.465 63.5498C281.832 65.1831 279.898 66.4671 277.665 67.4004C275.465 68.3003 273.048 68.75 270.415 68.75C267.815 68.75 265.398 68.3004 263.165 67.4004C260.932 66.4671 258.999 65.1831 257.365 63.5498C255.765 61.9165 254.515 59.9833 253.615 57.75C252.715 55.5167 252.266 53.1 252.266 50.5C252.266 47.8667 252.715 45.45 253.615 43.25C254.515 41.05 255.782 39.1498 257.415 37.5498C259.082 35.9166 261.015 34.65 263.215 33.75C265.448 32.85 267.848 32.4004 270.415 32.4004ZM270.415 38.0498C268.115 38.0498 266.066 38.5838 264.266 39.6504C262.466 40.717 261.049 42.1998 260.016 44.0996C259.016 45.9663 258.516 48.1 258.516 50.5C258.516 52.9 259.016 55.0502 260.016 56.9502C261.049 58.8167 262.466 60.283 264.266 61.3496C266.066 62.4162 268.115 62.9502 270.415 62.9502C272.748 62.9502 274.799 62.4163 276.565 61.3496C278.365 60.283 279.766 58.8168 280.766 56.9502C281.799 55.0502 282.315 52.9 282.315 50.5C282.315 48.1 281.815 45.9663 280.815 44.0996C279.815 42.1998 278.415 40.717 276.615 39.6504C274.849 38.5837 272.782 38.0498 270.415 38.0498Z" fill="#1F2328"/>
<path d="M248.525 68H242.426L239.976 46.7002L229.325 64.75L218.676 46.7002L216.275 68H210.176L214.976 31.25L229.325 55L243.726 31.25L248.525 68Z" fill="#1F2328"/>
<path d="M300.253 62.7002H314.153V68H294.354V33H300.253V62.7002Z" fill="#1F2328"/>
</svg>
