<svg width="378" height="164" viewBox="0 0 378 164" fill="none" xmlns="http://www.w3.org/2000/svg">
<g>
<path d="M108.815 63.6886C113.091 63.6886 116.857 64.3672 120.115 65.7243C123.372 67.0815 126.12 68.9816 128.36 71.4245C130.667 73.7995 132.398 76.6835 133.551 80.0765C134.705 83.4694 135.282 87.2356 135.282 91.375C135.282 95.5822 134.705 99.3823 133.551 102.775C132.466 106.1 130.803 108.984 128.563 111.427C126.324 113.87 123.542 115.736 120.216 117.026C116.959 118.315 113.159 118.96 108.815 118.96C104.54 118.96 100.774 118.315 97.5161 117.026C94.2587 115.668 91.5102 113.802 89.2707 111.427C87.0991 108.984 85.4365 106.066 84.2828 102.674C83.197 99.2805 82.6541 95.5144 82.6541 91.375C82.6541 87.2356 83.197 83.4694 84.2828 80.0765C85.4365 76.6835 87.1331 73.7995 89.3725 71.4245C91.612 68.9816 94.3605 67.0815 97.6179 65.7243C100.875 64.3672 104.608 63.6886 108.815 63.6886ZM108.815 108.883C111.462 108.883 113.702 108.442 115.534 107.559C117.434 106.609 118.961 105.354 120.115 103.793C121.336 102.232 122.218 100.4 122.761 98.2966C123.372 96.193 123.677 93.9197 123.677 91.4768C123.677 89.0338 123.372 86.7606 122.761 84.6569C122.218 82.4855 121.336 80.6193 120.115 79.0586C118.961 77.4978 117.434 76.2764 115.534 75.3942C113.702 74.5121 111.462 74.071 108.815 74.071C106.237 74.071 104.031 74.5121 102.199 75.3942C100.366 76.2764 98.8394 77.4978 97.6179 79.0586C96.3964 80.6193 95.4802 82.4855 94.8694 84.6569C94.3265 86.7606 94.0551 89.0338 94.0551 91.4768C94.0551 93.9197 94.3265 96.193 94.8694 98.2966C95.4802 100.4 96.3624 102.232 97.5161 103.793C98.7376 105.354 100.265 106.609 102.097 107.559C103.997 108.442 106.237 108.883 108.815 108.883Z" fill="black"/>
<path d="M218.981 118.247H208.089L207.478 110.816C205.51 113.667 203.033 115.702 200.047 116.924C197.061 118.145 193.702 118.824 189.969 118.96C185.83 118.892 182.267 118.145 179.281 116.72C176.295 115.227 173.818 113.259 171.85 110.816C169.882 108.306 168.423 105.422 167.473 102.164C166.591 98.9073 166.15 95.4465 166.15 91.7821C166.15 87.7785 166.659 84.0802 167.676 80.6872C168.762 77.2943 170.357 74.3424 172.461 71.8316C174.565 69.3209 177.143 67.3529 180.197 65.9279C183.251 64.435 186.814 63.6886 190.886 63.6886C193.804 63.6886 196.756 64.1636 199.742 65.1136C202.728 66.0636 205.273 67.828 207.376 70.4066V36.1888L218.981 45.5409V118.247ZM192.209 74.1728C189.63 74.1728 187.425 74.6138 185.592 75.496C183.76 76.3782 182.233 77.5996 181.012 79.1604C179.858 80.7211 179.01 82.5873 178.467 84.7587C177.924 86.8624 177.652 89.1356 177.652 91.5785C177.652 94.0215 177.924 96.2947 178.467 98.3984C179.01 100.502 179.858 102.334 181.012 103.895C182.233 105.456 183.76 106.711 185.592 107.661C187.492 108.543 189.766 108.984 192.413 108.984C194.923 108.984 197.095 108.509 198.927 107.559C200.828 106.541 202.388 105.218 203.61 103.59C204.899 101.961 205.849 100.095 206.46 97.9912C207.071 95.8876 207.376 93.7161 207.376 91.4768C207.376 89.1017 207.071 86.8624 206.46 84.7587C205.917 82.6551 205.035 80.8569 203.814 79.364C202.592 77.8032 201.031 76.5817 199.131 75.6996C197.231 74.7496 194.923 74.2406 192.209 74.1728Z" fill="black"/>
<path d="M26 63.3832H38.8261L53.6881 105.931L68.4483 63.3832H81.2744L61.1191 117.026H46.1553L26 63.3832Z" fill="black"/>
<path d="M270.344 31C266.883 35.1227 263.941 39.313 261.518 43.5709C259.096 47.7612 257.123 52.019 255.6 56.3445C254.077 60.67 252.97 65.0292 252.278 69.4223C251.585 73.8153 251.205 78.2083 251.135 82.6014C251.274 91.5227 252.797 100.275 255.704 108.858C258.611 117.374 263.457 125.755 270.24 134H256.95C253.973 130.35 251.378 126.43 249.163 122.24C246.948 118.117 245.113 113.86 243.66 109.467C242.206 105.006 241.099 100.511 240.337 95.9833C239.645 91.4551 239.299 86.9944 239.299 82.6014C239.299 78.2083 239.645 73.7477 240.337 69.2195C241.099 64.6237 242.206 60.0955 243.66 55.6348C245.183 51.1742 247.052 46.8825 249.267 42.7598C251.482 38.5696 254.077 34.6496 257.054 31H270.344Z" fill="black"/>
<path d="M320.955 134C327.808 125.755 332.688 117.34 335.595 108.757C338.502 100.106 340.025 91.3537 340.163 82.5C340.025 73.5787 338.502 64.8264 335.595 56.2431C332.688 47.6598 327.842 39.2454 321.059 31H334.245C337.222 34.6496 339.817 38.5696 342.032 42.7598C344.247 46.8825 346.082 51.1742 347.535 55.6348C349.058 60.0279 350.166 64.5223 350.858 69.1181C351.619 73.6463 352 78.107 352 82.5C352 86.893 351.619 91.3875 350.858 95.9833C350.096 100.511 348.954 105.006 347.431 109.467C345.978 113.86 344.144 118.117 341.929 122.24C339.714 126.43 337.118 130.35 334.141 134H320.955Z" fill="black"/>
<path d="M323.673 82.3885C323.673 87.8851 323.096 92.9066 321.943 97.4532C320.857 101.932 319.126 105.766 316.751 108.955C314.444 112.145 311.526 114.622 307.997 116.386C304.468 118.15 300.294 119.032 295.476 119.032C290.658 119.032 286.484 118.184 282.955 116.488C279.426 114.723 276.508 112.28 274.201 109.159C271.894 106.037 270.163 102.271 269.009 97.8604C267.856 93.4495 267.279 88.5298 267.279 83.101C267.279 77.5366 267.822 72.4472 268.908 67.8328C269.993 63.2184 271.69 59.2487 273.997 55.9236C276.305 52.5985 279.223 50.0538 282.752 48.2895C286.348 46.4573 290.59 45.5412 295.476 45.5412C300.226 45.5412 304.366 46.4233 307.895 48.1877C311.424 49.952 314.342 52.4628 316.649 55.72C319.025 58.9772 320.789 62.8791 321.943 67.4256C323.096 71.9043 323.673 76.892 323.673 82.3885ZM278.985 82.3885C278.985 86.1208 279.257 89.5816 279.8 92.7709C280.343 95.9603 281.259 98.7425 282.548 101.118C282.729 101.441 282.917 101.755 283.114 102.059C284.321 103.929 285.829 105.447 287.638 106.614C288.533 107.163 289.52 107.595 290.6 107.91C292.057 108.335 293.683 108.548 295.476 108.548C298.53 108.548 301.109 107.903 303.212 106.614C305.316 105.257 307.013 103.425 308.302 101.118C309.592 98.7425 310.508 95.9603 311.051 92.7709C311.593 89.5816 311.865 86.1208 311.865 82.3885C311.865 78.7242 311.593 75.2973 311.051 72.1079C310.508 68.8507 309.592 66.0685 308.302 63.7613C308.102 63.3928 307.892 63.0366 307.673 62.6926C306.477 60.8195 304.99 59.3095 303.212 58.1629C302.301 57.5748 301.3 57.1142 300.21 56.7809C298.785 56.3451 297.207 56.1272 295.476 56.1272C292.354 56.1272 289.742 56.8057 287.638 58.1629C285.534 59.5201 283.838 61.3862 282.548 63.7613C281.259 66.0685 280.343 68.8507 279.8 72.1079C279.257 75.2973 278.985 78.7242 278.985 82.3885Z" fill="black"/>
<path d="M156.455 58.1629H144.861V46.5701H156.455V58.1629Z" fill="black"/>
<path d="M156.455 63.7177V108.557H162.046V118.251H138.956V108.557H144.858V73.4118H138.956V63.7177H156.455Z" fill="black"/>
<path d="M300.726 54.4442H309.983L290.466 110.556H281.21L300.726 54.4442Z" fill="black"/>
</g>
</svg>
