<svg viewBox="0 0 101 44" fill="none" xmlns="http://www.w3.org/2000/svg">
  <g clip-path="url(#clip0_3141_8091)">
    <path d="M47.6495 38.136C38.4364 38.136 33.749 32.7482 33.749 26.0135C33.749 18.0395 40.1066 10.8199 49.3197 10.8199C58.5326 10.8199 63.2201 16.2077 63.2201 22.9424C63.2201 30.9164 56.8623 38.136 47.6495 38.136ZM48.0266 29.5693C51.2591 29.5693 53.3065 26.6598 53.3065 23.4273C53.3065 20.8412 51.6363 19.3865 48.9425 19.3865C45.7098 19.3865 43.6624 22.2959 43.6624 25.5286C43.6624 28.1147 45.3326 29.5693 48.0266 29.5693ZM73.0337 37.4893H63.3357L71.2558 1.55298H80.9538L73.0337 37.4893Z" fill="white"/>
    <path fill-rule="evenodd" clip-rule="evenodd" d="M19.0563 38.136C16.093 38.136 13.1836 37.0583 11.5134 34.7417L10.9243 37.474L0.0478516 43.252L1.22201 37.474L9.14281 1.55298H18.8408L16.0392 14.2142C18.302 11.7359 20.4032 10.8199 23.0971 10.8199C28.9159 10.8199 32.7951 14.6453 32.7951 21.6494C32.7951 28.869 28.3231 38.136 19.0563 38.136ZM22.7739 23.6967C22.7739 27.037 20.4032 29.5693 17.3322 29.5693C15.6081 29.5693 14.0457 28.9229 13.022 27.7914L14.5306 21.1644C15.662 20.033 16.9551 19.3865 18.4636 19.3865C20.7804 19.3865 22.7739 21.1106 22.7739 23.6967Z" fill="white"/>
    <path d="M91.0448 38.1356C85.4413 38.1356 81.4545 36.0882 81.4545 31.5624C81.4545 31.1853 81.5083 30.2694 81.6699 29.515L83.7711 19.871H79.4609L81.3468 11.4661H85.6569L87.2192 4.35424L98.0763 -0.130615L96.9175 4.36521L95.3549 11.4661H100.635L98.7492 19.871H93.4691L92.0683 26.2284C91.9607 26.7136 91.9068 27.2523 91.9068 27.4676C91.9068 28.7069 92.6609 29.5689 94.3311 29.5689C94.816 29.5689 95.5165 29.4073 95.678 29.2997V37.0579C94.6544 37.7584 92.8227 38.1356 91.0448 38.1356Z" fill="white"/>
  </g>
  <defs>
    <clipPath id="clip0_3141_8091">
      <rect width="100.8" height="43.6375" fill="white"/>
    </clipPath>
  </defs>
</svg>
