<svg viewBox="0 0 184 18" fill="none" xmlns="http://www.w3.org/2000/svg">
  <path d="M45.8751 14.5778H53.1117V16.1975H44.0986V1.72437H45.8751V14.5778Z" fill="white" fill-opacity="0.7"/>
  <path d="M65.0255 16.1975H63.249V1.72437H65.0255V16.1975Z" fill="white" fill-opacity="0.7"/>
  <path d="M91.8812 16.1975H90.1309V5.51246L84.6969 16.1975H83.4429L78.0089 5.51246V16.1975H76.2324V1.72437H78.0089L84.0699 13.5589L90.1047 1.72437H91.8812V16.1975Z" fill="white" fill-opacity="0.7"/>
  <path d="M104.865 16.1975H103.089V1.72437H104.865V16.1975Z" fill="white" fill-opacity="0.7"/>
  <path d="M126.993 16.1975H125.321L117.85 5.06834V16.1975H116.073V1.72437H117.719L125.243 12.8797V1.72437H126.993V16.1975Z" fill="white" fill-opacity="0.7"/>
  <path d="M139.978 16.1975H138.201V1.72437H139.978V16.1975Z" fill="white" fill-opacity="0.7"/>
  <path d="M162.287 3.31798H156.906V16.1975H155.129V3.31798H149.773V1.72437H162.287V3.31798Z" fill="white" fill-opacity="0.7"/>
  <path d="M177.937 10.3978V16.1975H176.16V10.3978L170.674 1.72437H172.764L177.074 8.46457L181.307 1.72437H183.397L177.937 10.3978Z" fill="white" fill-opacity="0.7"/>
  <path d="M24.4006 0.104499L8.90859 15.5965L2.37736 9.06531L9.06534 2.37736L14.7344 7.99419L15.9101 6.81858L9.06534 0L0 9.06531L8.90859 17.9739L24.4006 2.48186L30.8535 8.93469L24.7141 15.5965L18.7054 9.58781L17.5037 10.7634L24.7664 18L33.1786 8.88244L24.4006 0.104499Z" fill="white" fill-opacity="0.7"/>
</svg>
