<svg viewBox="0 0 134 40" fill="none" xmlns="http://www.w3.org/2000/svg">
  <path d="M11.0077 24.6071C12.0957 24.6071 12.9732 24.9407 13.6396 25.607C14.306 26.2734 14.6396 27.2046 14.6396 28.399V33.5988H12.3997V28.703C12.3997 28.0094 12.2237 27.479 11.8717 27.111C11.5197 26.743 11.0397 26.559 10.4317 26.559C9.82373 26.559 9.34134 26.743 8.98375 27.111C8.62616 27.479 8.44777 28.0094 8.44777 28.703V33.5988H6.20783V28.703C6.20783 28.0094 6.03183 27.479 5.67984 27.111C5.32785 26.743 4.84787 26.559 4.23988 26.559C3.6215 26.559 3.13351 26.743 2.77592 27.111C2.41833 27.479 2.23994 28.0094 2.23994 28.703V33.5988H0V24.7351H2.23994V25.807C2.52793 25.4335 2.89832 25.1407 3.35191 24.9271C3.80549 24.7135 4.30388 24.6071 4.84787 24.6071C5.54145 24.6071 6.15983 24.7535 6.70381 25.0471C7.2478 25.3407 7.66939 25.759 7.96778 26.303C8.25577 25.791 8.67416 25.3807 9.22375 25.0711C9.76763 24.7632 10.3827 24.6032 11.0077 24.6071ZM16.1916 29.1349C16.1916 28.239 16.3699 27.4446 16.7275 26.751C17.0851 26.0574 17.5699 25.5247 18.1835 25.1511C18.7971 24.7775 19.4819 24.5911 20.2394 24.5911C20.901 24.5911 21.4794 24.7247 21.9754 24.9911C22.4714 25.2575 22.869 25.5934 23.1674 25.999V24.7351H25.4233V33.5988H23.1674V32.3029C22.8794 32.7189 22.4818 33.0628 21.9754 33.3348C21.469 33.6068 20.885 33.7428 20.2234 33.7428C19.5024 33.75 18.7944 33.5501 18.1835 33.1668C17.5699 32.7828 17.0851 32.2413 16.7275 31.5429C16.3699 30.8445 16.1916 30.0413 16.1916 29.1349ZM23.1674 29.1669C23.1674 28.623 23.061 28.1566 22.8474 27.767C22.6491 27.3932 22.3497 27.0827 21.9834 26.871C21.621 26.663 21.2314 26.559 20.8154 26.559C20.4112 26.5561 20.0136 26.661 19.6635 26.863C19.3115 27.0654 19.0259 27.3614 18.8075 27.751C18.5891 28.1406 18.4795 28.6014 18.4795 29.1349C18.4795 29.6685 18.5891 30.1349 18.8075 30.5349C19.0259 30.9349 19.3139 31.2413 19.6715 31.4549C20.0161 31.6648 20.4119 31.7755 20.8154 31.7749C21.2314 31.7749 21.621 31.6709 21.9834 31.4629C22.3497 31.2512 22.6491 30.9407 22.8474 30.5669C23.061 30.1773 23.1674 29.7109 23.1674 29.1669ZM28.7512 23.6791C28.3568 23.6791 28.0288 23.5535 27.7672 23.3031C27.5056 23.0527 27.3752 22.7407 27.3752 22.3671C27.3752 21.9935 27.5056 21.6816 27.7672 21.4312C28.0288 21.1808 28.3568 21.0552 28.7512 21.0552C29.1456 21.0552 29.4736 21.1808 29.7352 21.4312C29.9968 21.6816 30.1272 21.9935 30.1272 22.3671C30.1272 22.7407 29.9968 23.0527 29.7352 23.3031C29.4736 23.5535 29.1456 23.6791 28.7512 23.6791ZM29.8552 24.7351V33.5988H27.6152V24.7351H29.8552ZM34.3031 21.7592V33.5988H32.0631V21.7592H34.3031ZM47.5187 24.6071C48.6067 24.6071 49.4842 24.9407 50.1506 25.607C50.817 26.2734 51.1506 27.2046 51.1506 28.399V33.5988H48.9106V28.703C48.9106 28.0094 48.7347 27.479 48.3827 27.111C48.0307 26.743 47.5507 26.559 46.9427 26.559C46.3347 26.559 45.8523 26.743 45.4947 27.111C45.1372 27.479 44.9588 28.0094 44.9588 28.703V33.5988H42.7188V28.703C42.7188 28.0094 42.5428 27.479 42.1908 27.111C41.8388 26.743 41.3589 26.559 40.7509 26.559C40.1325 26.559 39.6445 26.743 39.2869 27.111C38.9293 27.479 38.7509 28.0094 38.7509 28.703V33.5988H36.511V24.7351H38.7509V25.807C39.0389 25.4335 39.4093 25.1407 39.8629 24.9271C40.3165 24.7135 40.8149 24.6071 41.3589 24.6071C42.0524 24.6071 42.6708 24.7535 43.2148 25.0471C43.7588 25.3407 44.1804 25.759 44.4788 26.303C44.7668 25.791 45.1852 25.3807 45.7347 25.0711C46.2786 24.7632 46.8937 24.6032 47.5187 24.6071ZM61.5183 28.975C61.5183 29.2949 61.4967 29.5829 61.4543 29.8389H54.9745C55.0281 30.4789 55.2521 30.9805 55.6465 31.3429C56.0409 31.7053 56.5264 31.8869 57.1024 31.8869C57.9344 31.8869 58.5264 31.5293 58.8784 30.8149H61.2943C61.0383 31.6685 60.5479 32.3693 59.8224 32.9188C59.0968 33.4684 58.2064 33.7428 57.1504 33.7428C56.2968 33.7428 55.5321 33.5532 54.8545 33.1748C54.1769 32.7964 53.6489 32.2605 53.2705 31.5669C52.8921 30.8733 52.7025 30.0733 52.7025 29.1669C52.7025 28.2494 52.8889 27.4446 53.2625 26.751C53.6361 26.0574 54.1585 25.5247 54.8305 25.1511C55.5025 24.7775 56.276 24.5911 57.1504 24.5911C57.9928 24.5911 58.748 24.7727 59.4144 25.1351C60.0807 25.4975 60.5983 26.0126 60.9663 26.679C61.3343 27.3454 61.5183 28.111 61.5183 28.975ZM59.1984 28.335C59.188 27.759 58.98 27.2974 58.5744 26.951C58.1688 26.6046 57.6728 26.431 57.0864 26.431C56.532 26.431 56.0648 26.599 55.6865 26.935C55.3081 27.271 55.0761 27.7374 54.9905 28.335H59.1984ZM65.7582 26.575V30.8629C65.7582 31.1613 65.8302 31.3773 65.9742 31.5109C66.1182 31.6445 66.3606 31.7109 66.7022 31.7109H67.7421V33.5988H66.3342C64.4462 33.5988 63.5023 32.6813 63.5023 30.8469V26.575H62.4463V24.7351H63.5023V22.5431H65.7582V24.7351H67.7421V26.575H65.7582ZM77.5979 28.975C77.5979 29.2949 77.5763 29.5829 77.5339 29.8389H71.054C71.1076 30.4789 71.3316 30.9805 71.726 31.3429C72.1204 31.7053 72.606 31.8869 73.182 31.8869C74.014 31.8869 74.6059 31.5293 74.9579 30.8149H77.3739C77.1179 31.6685 76.6275 32.3693 75.9019 32.9188C75.1763 33.4684 74.2859 33.7428 73.23 33.7428C72.3764 33.7428 71.6116 33.5532 70.934 33.1748C70.2565 32.7964 69.7285 32.2605 69.3501 31.5669C68.9717 30.8733 68.7821 30.0733 68.7821 29.1669C68.7821 28.2494 68.9685 27.4446 69.3421 26.751C69.7157 26.0574 70.2381 25.5247 70.91 25.1511C71.582 24.7775 72.3556 24.5911 73.23 24.5911C74.0724 24.5911 74.8275 24.7727 75.4939 25.1351C76.1603 25.4975 76.6779 26.0126 77.0459 26.679C77.4139 27.3454 77.5979 28.111 77.5979 28.975ZM75.2779 28.335C75.2675 27.759 75.0595 27.2974 74.6539 26.951C74.2484 26.6046 73.7524 26.431 73.166 26.431C72.6116 26.431 72.1444 26.599 71.766 26.935C71.3876 27.271 71.1556 27.7374 71.07 28.335H75.2779ZM83.1657 33.7428C82.3121 33.7428 81.5442 33.5532 80.8618 33.1748C80.1794 32.7964 79.6434 32.2605 79.2538 31.5669C78.8642 30.8733 78.6698 30.0733 78.6698 29.1669C78.6698 28.2606 78.8698 27.4606 79.2698 26.767C79.6551 26.088 80.2233 25.5309 80.9098 25.1591C81.6033 24.7807 82.3761 24.5911 83.2297 24.5911C84.0833 24.5911 84.8561 24.7807 85.5496 25.1591C86.2361 25.5309 86.8043 26.088 87.1896 26.767C87.5896 27.4606 87.7896 28.2606 87.7896 29.1669C87.7896 30.0733 87.584 30.8733 87.1736 31.5669C86.7778 32.246 86.2019 32.8025 85.5096 33.1748C84.8113 33.5532 84.0297 33.7428 83.1657 33.7428ZM83.1657 31.7909C83.5661 31.7922 83.9602 31.6903 84.3097 31.4949C84.6673 31.2973 84.952 31.0013 85.1656 30.6069C85.3792 30.2125 85.4856 29.7325 85.4856 29.1669C85.4856 28.3246 85.264 27.6766 84.8217 27.223C84.3793 26.7694 83.8377 26.543 83.1977 26.543C82.8968 26.5362 82.598 26.5933 82.3208 26.7105C82.0436 26.8277 81.7944 27.0024 81.5898 27.223C81.1578 27.6766 80.9418 28.3246 80.9418 29.1669C80.9418 30.0093 81.1522 30.6573 81.5737 31.1109C81.9953 31.5645 82.5257 31.7909 83.1657 31.7909ZM91.6775 26.111C91.9535 25.6531 92.3417 25.2732 92.8054 25.0071C93.2694 24.7407 93.7998 24.6071 94.3974 24.6071V26.959H93.8054C93.1014 26.959 92.571 27.1246 92.2135 27.455C91.8559 27.7854 91.6775 28.3614 91.6775 29.1829V33.5988H89.4375V24.7351H91.6775V26.111Z" fill="white" fill-opacity="0.7"/>
  <path d="M104.753 4.47427L107.262 9.09175L107.242 9.11255L93.3147 0L93.2939 0.0207994L104.177 17.0595C104.177 17.0803 104.156 17.0803 104.156 17.1003L99.4858 15.4252L99.877 16.1403L103.127 21.9018C104.582 24.4653 106.133 26.9732 107.777 29.42L111.418 34.3846C112.2 35.3446 113.002 36.2646 113.928 37.0814C115.636 38.5933 117.631 39.5125 119.894 39.8597C122.363 40.2277 124.729 39.8805 126.93 38.7157C130.222 36.9998 132.32 34.323 133.04 30.7071C133.781 27.0504 132.875 23.7817 130.468 20.921C129.563 19.8378 128.472 18.9395 127.362 18.0611C125.387 16.5291 123.309 15.1396 121.169 13.8116L115.594 10.4405L108.229 6.31342L104.896 4.51587L104.773 4.45428C104.773 4.45428 104.752 4.45428 104.752 4.47507L104.753 4.47427ZM112.036 23.3513L104.28 11.1749C104.301 11.1749 104.301 11.1541 104.321 11.1541L116.418 19.1419L116.439 19.1211L114.731 15.9748L113.003 12.8284C113.044 12.8492 113.085 12.8692 113.106 12.89C114.907 13.8582 116.671 14.8941 118.393 15.9956C120.821 17.5275 123.228 19.1011 125.491 20.8578C126.209 21.4349 126.909 22.0344 127.589 22.6554C127.795 22.8394 127.959 23.0434 128.124 23.2481C129.729 25.2505 130.367 27.5176 129.852 30.0312C129.297 32.7071 127.754 34.6686 125.326 35.8942C122.692 37.2222 120.059 37.1198 117.467 35.6902C116.521 35.159 115.739 34.4238 115.019 33.6063C113.867 32.2991 112.817 30.9303 111.83 29.5C110.122 27.0896 108.538 24.6169 107.037 22.0842C106.934 21.9002 106.81 21.7162 106.708 21.5122L106.729 21.4914L112.037 23.3505L112.036 23.3513Z" fill="white" fill-opacity="0.7"/>
  <path d="M126.506 26.1155C126.466 26.0547 126.405 25.9939 126.345 25.9539C126.305 25.9339 126.285 25.9131 126.245 25.8931C126.164 25.8523 126.084 25.8523 126.003 25.8523H125.983L125.601 26.1355L125.581 26.1555L122.084 28.721L118.506 26.0947L118.144 25.8323H118.063C117.903 25.8335 117.75 25.8979 117.637 26.0115C117.524 26.125 117.46 26.2785 117.46 26.4387V26.7618V31.9129C117.46 31.9737 117.46 32.0345 117.48 32.0745C117.561 32.3169 117.782 32.4985 118.063 32.4985H118.506V27.509L121.099 29.4082L121.943 30.0346L122.104 30.1562L123.089 29.429L125.581 27.5906V32.4793H126.024C126.305 32.4793 126.526 32.2977 126.607 32.0553C126.627 31.9945 126.627 31.9337 126.627 31.8937V26.8434V26.4195C126.607 26.3187 126.587 26.2163 126.506 26.1155Z" fill="white" fill-opacity="0.7"/>
</svg>
