<svg viewBox="0 0 132 33" fill="none" xmlns="http://www.w3.org/2000/svg">
  <g clip-path="url(#clip0_3141_8096)">
    <path d="M27.5607 32.85H45.822C46.4007 32.8494 46.9692 32.6975 47.4711 32.4094C47.973 32.1213 48.3908 31.707 48.6832 31.2075C48.9729 30.7085 49.1253 30.1418 49.125 29.5648C49.1248 28.9878 48.9717 28.4212 48.6816 27.9225L36.417 6.80489C36.1267 6.30367 35.7093 5.88789 35.2069 5.59951C34.7046 5.31113 34.135 5.16036 33.5558 5.16239C32.977 5.16284 32.4085 5.31467 31.9065 5.6028C31.4046 5.89093 30.9868 6.30535 30.6945 6.80489L27.559 12.2087L21.4276 1.64252C21.1371 1.1414 20.7197 0.725718 20.2173 0.437356C19.715 0.148993 19.1455 -0.00185454 18.5663 1.72088e-05C17.9876 0.000628192 17.4191 0.152525 16.9172 0.440641C16.4153 0.728758 15.9975 1.14308 15.7051 1.64252L0.442977 27.9225C0.225303 28.2958 0.0838191 28.7086 0.0267121 29.137C-0.030395 29.5653 -0.00199176 30.0008 0.110278 30.4181C0.222548 30.8354 0.416457 31.2263 0.680784 31.5682C0.945111 31.91 1.27461 32.1961 1.65021 32.4098C2.15282 32.6973 2.72277 32.8484 3.30257 32.8484H14.7672C19.3087 32.8484 22.6578 30.8659 24.9622 26.9961L30.5582 17.3629L33.5558 12.2071L42.5501 27.6942H30.5582L27.559 32.8484L27.5607 32.85ZM14.58 27.6876H6.581L18.5713 7.04142L24.5549 17.3629L20.5488 24.263C19.018 26.7728 17.2802 27.6876 14.58 27.6876ZM72.7721 32.5609V27.8897H61.4454V7.39619H56.0679V32.5609H72.7721ZM82.8127 32.85C84.9135 32.85 86.8007 31.9861 87.6909 30.6556V32.5609H92.6776V14.4442H87.6909V16.2411C86.6939 14.9829 84.9135 14.1551 82.7404 14.1551C77.5058 14.1551 74.3358 17.8589 74.3358 23.5009C74.3358 29.1462 77.5074 32.85 82.8127 32.85ZM83.5962 28.5352C80.96 28.5352 79.2156 26.5215 79.2156 23.5026C79.2156 20.4475 80.96 18.4338 83.5962 18.4338C86.2669 18.4338 88.0112 20.4459 88.0112 23.5026C88.0112 26.5215 86.2669 28.5352 83.5962 28.5352ZM106.76 32.85C112.066 32.85 115.344 29.1462 115.344 23.5026C115.344 17.8589 112.067 14.1567 106.831 14.1567C104.587 14.1567 102.843 15.0174 101.846 16.3478V6.57002H96.8955V32.5609H101.846V30.585C102.843 31.9861 104.694 32.85 106.76 32.85ZM105.977 28.5352C103.306 28.5352 101.56 26.5215 101.56 23.5026C101.56 20.4475 103.306 18.4338 105.977 18.4338C108.577 18.4338 110.357 20.4459 110.357 23.5026C110.357 26.5215 108.577 28.5352 105.977 28.5352ZM124.414 32.85C128.615 32.85 131.395 30.5834 131.395 27.1341C131.395 18.938 121.564 23.1428 121.564 19.4406C121.564 18.2909 122.525 17.6782 123.915 17.6782C125.268 17.6782 126.658 18.5061 126.871 20.0517H131.181C131.002 16.4924 128.082 14.1551 123.773 14.1551C120.104 14.1551 117.363 16.4217 117.363 19.6197C117.363 27.2409 127.014 23.611 127.014 27.3131C127.014 28.32 125.946 29.0739 124.414 29.0739C122.561 29.0739 121.315 28.0671 121.137 26.4508H116.863C117.041 30.3682 120.033 32.85 124.414 32.85Z" fill="white"/>
  </g>
  <defs>
    <clipPath id="clip0_3141_8096">
      <rect width="131.4" height="32.85" fill="white"/>
    </clipPath>
  </defs>
</svg>
