<svg viewBox="0 0 101 29" fill="none" xmlns="http://www.w3.org/2000/svg">
  <path d="M8.18861 9.01538C7.63732 9.01538 7.19043 9.46115 7.19043 10.0111C7.19043 10.5609 7.63732 11.0067 8.18861 11.0067C8.7399 11.0067 9.18682 10.5609 9.18682 10.0111C9.18682 9.46115 8.7399 9.01538 8.18861 9.01538Z" fill="white" fill-opacity="0.7"/>
  <path d="M19.6123 18.8614C19.6123 18.3115 20.0592 17.8657 20.6105 17.8657C21.1618 17.8657 21.6087 18.3115 21.6087 18.8614C21.6087 19.4113 21.1618 19.8571 20.6105 19.8571C20.0592 19.8571 19.6123 19.4113 19.6123 18.8614Z" fill="white" fill-opacity="0.7"/>
  <path fill-rule="evenodd" clip-rule="evenodd" d="M0 14.4C0 6.44711 6.44711 0 14.4 0C22.3529 0 28.8 6.44711 28.8 14.4C28.8 22.3529 22.3529 28.8 14.4 28.8C6.44711 28.8 0 22.3529 0 14.4ZM5.63809 10.0112C5.63809 8.6059 6.78018 7.46669 8.18902 7.46669C9.32717 7.46669 10.2912 8.21016 10.6197 9.23676H11.7382C13.637 9.23676 15.1764 10.7722 15.1764 12.6663V16.2065C15.1764 17.2452 16.0205 18.0872 17.0618 18.0872H18.1803C18.5088 17.0606 19.4728 16.3171 20.611 16.3171C22.0198 16.3171 23.1619 17.4563 23.1619 18.8616C23.1619 20.2669 22.0198 21.4061 20.611 21.4061C19.4728 21.4061 18.5088 20.6626 18.1803 19.636H17.0618C15.163 19.636 13.6236 18.1005 13.6236 16.2065V12.6663C13.6236 11.6276 12.7795 10.7856 11.7382 10.7856H10.6197C10.2912 11.8122 9.32717 12.5557 8.18902 12.5557C6.78018 12.5557 5.63809 11.4165 5.63809 10.0112Z" fill="white" fill-opacity="0.7"/>
  <path d="M68.3829 13.3891L67.5535 20.7504H65.4453L67.1042 8.04956L72.0636 16.2576L77.0402 8.04956L78.6991 20.7504H76.5909L75.7442 13.3891L72.0636 19.6272L68.3829 13.3891Z" fill="white" fill-opacity="0.7"/>
  <path fill-rule="evenodd" clip-rule="evenodd" d="M37.906 11.8684C37.595 12.6287 37.4395 13.4639 37.4395 14.374C37.4395 15.2726 37.595 16.1078 37.906 16.8796C38.2171 17.6515 38.6491 18.3196 39.202 18.8841C39.7665 19.4486 40.4347 19.8921 41.2065 20.2147C41.9783 20.5257 42.8135 20.6812 43.7121 20.6812C44.6222 20.6812 45.4574 20.5257 46.2177 20.2147C46.9895 19.8921 47.6577 19.4486 48.2222 18.8841C48.7867 18.3196 49.2244 17.6515 49.5355 16.8796C49.8465 16.1078 50.002 15.2726 50.002 14.374C50.002 13.4639 49.8465 12.6287 49.5355 11.8684C49.2244 11.1081 48.7809 10.4515 48.2049 9.89849C47.6404 9.33401 46.978 8.89625 46.2177 8.58521C45.4574 8.27417 44.6222 8.11865 43.7121 8.11865C42.8251 8.11865 41.9956 8.27417 41.2238 8.58521C40.4635 8.89625 39.7953 9.33401 39.2193 9.89849C38.6548 10.4515 38.2171 11.1081 37.906 11.8684ZM40.1179 16.6031C39.7723 15.9465 39.5995 15.2035 39.5995 14.374C39.5995 13.5446 39.7723 12.8073 40.1179 12.1622C40.475 11.5055 40.9646 10.9929 41.5867 10.6243C42.2087 10.2556 42.9172 10.0713 43.7121 10.0713C44.53 10.0713 45.2443 10.2556 45.8548 10.6243C46.4769 10.9929 46.9607 11.5055 47.3063 12.1622C47.6519 12.8073 47.8247 13.5446 47.8247 14.374C47.8247 15.2035 47.6462 15.9465 47.2891 16.6031C46.9435 17.2483 46.4596 17.7551 45.8375 18.1238C45.227 18.4924 44.5185 18.6767 43.7121 18.6767C42.9172 18.6767 42.2087 18.4924 41.5867 18.1238C40.9646 17.7551 40.475 17.2483 40.1179 16.6031Z" fill="white" fill-opacity="0.7"/>
  <path fill-rule="evenodd" clip-rule="evenodd" d="M51.9089 11.8684C51.5979 12.6287 51.4424 13.4639 51.4424 14.374C51.4424 15.2726 51.5979 16.1078 51.9089 16.8796C52.22 17.6515 52.652 18.3196 53.2049 18.8841C53.7694 19.4486 54.4376 19.8921 55.2094 20.2147C55.9813 20.5257 56.8165 20.6812 57.715 20.6812C58.6251 20.6812 59.4603 20.5257 60.2206 20.2147C60.9925 19.8921 61.6606 19.4486 62.2251 18.8841C62.7896 18.3196 63.2273 17.6515 63.5384 16.8796C63.8494 16.1078 64.0049 15.2726 64.0049 14.374C64.0049 13.4639 63.8494 12.6287 63.5384 11.8684C63.2273 11.1081 62.7838 10.4515 62.2078 9.89849C61.6433 9.33401 60.9809 8.89625 60.2206 8.58521C59.4603 8.27417 58.6251 8.11865 57.715 8.11865C56.828 8.11865 55.9985 8.27417 55.2267 8.58521C54.4664 8.89625 53.7982 9.33401 53.2222 9.89849C52.6577 10.4515 52.22 11.1081 51.9089 11.8684ZM54.1208 16.6031C53.7752 15.9465 53.6024 15.2035 53.6024 14.374C53.6024 13.5446 53.7752 12.8073 54.1208 12.1622C54.4779 11.5055 54.9675 10.9929 55.5896 10.6243C56.2117 10.2556 56.9201 10.0713 57.715 10.0713C58.5329 10.0713 59.2472 10.2556 59.8577 10.6243C60.4798 10.9929 60.9637 11.5055 61.3093 12.1622C61.6549 12.8073 61.8277 13.5446 61.8277 14.374C61.8277 15.2035 61.6491 15.9465 61.292 16.6031C60.9464 17.2483 60.4625 17.7551 59.8405 18.1238C59.2299 18.4924 58.5214 18.6767 57.715 18.6767C56.9201 18.6767 56.2117 18.4924 55.5896 18.1238C54.9675 17.7551 54.4779 17.2483 54.1208 16.6031Z" fill="white" fill-opacity="0.7"/>
  <path fill-rule="evenodd" clip-rule="evenodd" d="M80.6052 11.8684C80.2942 12.6287 80.1387 13.4639 80.1387 14.374C80.1387 15.2726 80.2942 16.1078 80.6052 16.8796C80.9163 17.6515 81.3483 18.3196 81.9012 18.8841C82.4657 19.4486 83.1339 19.8921 83.9057 20.2147C84.6775 20.5257 85.5128 20.6812 86.4113 20.6812C87.3214 20.6812 88.1566 20.5257 88.9169 20.2147C89.6887 19.8921 90.3569 19.4486 90.9214 18.8841C91.4859 18.3196 91.9236 17.6515 92.2347 16.8796C92.5457 16.1078 92.7012 15.2726 92.7012 14.374C92.7012 13.4639 92.5457 12.6287 92.2347 11.8684C91.9236 11.1081 91.4801 10.4515 90.9041 9.89849C90.3396 9.33401 89.6772 8.89625 88.9169 8.58521C88.1566 8.27417 87.3214 8.11865 86.4113 8.11865C85.5243 8.11865 84.6948 8.27417 83.923 8.58521C83.1627 8.89625 82.4945 9.33401 81.9185 9.89849C81.354 10.4515 80.9163 11.1081 80.6052 11.8684ZM82.8171 16.6031C82.4715 15.9465 82.2987 15.2035 82.2987 14.374C82.2987 13.5446 82.4715 12.8073 82.8171 12.1622C83.1742 11.5055 83.6638 10.9929 84.2859 10.6243C84.908 10.2556 85.6164 10.0713 86.4113 10.0713C87.2292 10.0713 87.9435 10.2556 88.554 10.6243C89.1761 10.9929 89.6599 11.5055 90.0055 12.1622C90.3511 12.8073 90.524 13.5446 90.524 14.374C90.524 15.2035 90.3454 15.9465 89.9883 16.6031C89.6427 17.2483 89.1588 17.7551 88.5368 18.1238C87.9262 18.4924 87.2177 18.6767 86.4113 18.6767C85.6164 18.6767 84.908 18.4924 84.2859 18.1238C83.6638 17.7551 83.1742 17.2483 82.8171 16.6031Z" fill="white" fill-opacity="0.7"/>
  <path d="M94.1416 8.35205H96.1806V18.6164H100.984V20.4481H94.1416V8.35205Z" fill="white" fill-opacity="0.7"/>
</svg>
