<svg viewBox="0 0 65 26" fill="none" xmlns="http://www.w3.org/2000/svg">
  <path d="M10.7601 24.5668H7.91203C7.04172 24.5668 6.25007 24.0128 5.89413 23.1821L0 8.22836H4.35156C5.30109 8.22836 6.09219 8.82195 6.40851 9.73188L9.37538 18.8305H9.4546L12.4215 9.73132C12.5627 9.29619 12.8376 8.91669 13.207 8.64684C13.5764 8.37699 14.0215 8.23055 14.479 8.22836H18.6325L12.7384 23.1821C12.4215 24.0128 11.6304 24.5668 10.7601 24.5668ZM20.531 24.5668H25.8711V8.2278H20.531V24.5657V24.5668ZM35.9199 12.4215V18.6727C35.9199 19.4241 36.0783 20.0177 36.3551 20.4133C36.6318 20.8094 37.1863 21.0069 37.9372 21.0069C38.2145 21.0069 38.4912 20.9673 38.7685 20.9277C39.0452 20.8881 39.3219 20.8088 39.52 20.7296L39.5986 24.6856C39.2427 24.8045 38.7679 24.9233 38.1749 25.0416C37.6209 25.1604 37.0273 25.2 36.4733 25.2C35.3659 25.2 34.456 25.0812 33.7441 24.8045C32.9926 24.5277 32.3996 24.1316 31.9644 23.6178C31.5293 23.1034 31.2124 22.4702 31.0144 21.7584C30.8169 21.0465 30.7376 20.2548 30.7376 19.3845V12.422H28.1267V8.42696H30.698V6.29024C30.698 5.1036 31.6476 4.11446 32.8348 4.11446H35.959V8.42696H39.7973V12.422H35.9199V12.4215ZM52.0207 17.6043H51.3484C50.7548 17.6043 50.1612 17.6433 49.5682 17.683C48.9746 17.7226 48.4206 17.8414 47.9854 17.9998C47.5112 18.1577 47.1151 18.3954 46.8384 18.6721C46.5221 18.9488 46.3642 19.3449 46.3642 19.8191C46.3642 20.136 46.4423 20.3731 46.5617 20.6108C46.7196 20.8479 46.878 21.0063 47.1151 21.1246C47.3528 21.2434 47.5899 21.3623 47.8672 21.4019C48.1439 21.4409 48.4206 21.4811 48.6979 21.4811C49.8053 21.4811 50.636 21.1642 51.19 20.5712C51.7836 19.9776 52.0603 19.1469 52.0603 18.1181V17.6043H52.0207ZM42.2101 10.6418C43.1591 9.73188 44.2671 9.01945 45.5726 8.58429C46.8384 8.11008 48.1439 7.91203 49.489 7.91203C50.8737 7.91203 52.0207 8.07047 52.9702 8.42641C53.9198 8.78234 54.6712 9.29672 55.2648 10.0086C55.8579 10.7205 56.293 11.6304 56.5703 12.6987C56.847 13.7666 56.9658 15.072 56.9658 16.5755V24.8045H52.0603V23.0638H51.9811C51.5855 23.7355 50.9529 24.2499 50.0826 24.6455C49.2513 25.0019 48.3419 25.1994 47.3528 25.1994C46.6705 25.2047 45.9911 25.1115 45.3355 24.9227C44.623 24.7643 43.9904 24.448 43.4364 24.0524C42.8348 23.6544 42.3446 23.1097 42.0121 22.4697C41.6562 21.7974 41.4581 21.0063 41.4581 20.0568C41.4581 18.8702 41.775 17.9201 42.4076 17.2087C43.0408 16.4963 43.8715 15.9423 44.9003 15.5468C45.9921 15.1266 47.1371 14.8604 48.3023 14.7557C49.5286 14.6369 50.7548 14.5582 51.9415 14.5582V14.2413C51.9415 13.4502 51.6647 12.8176 51.1108 12.4616C50.5573 12.0655 49.8449 11.868 49.0142 11.868C48.2508 11.8691 47.4962 12.0306 46.7994 12.3423C46.131 12.6344 45.5158 13.0356 44.979 13.5294L42.2101 10.6418ZM59.5377 24.8429V2.17578C59.5377 0.989143 60.4867 0 61.6739 0H64.9967V24.8429H59.5377ZM26.149 3.00704C26.149 4.66789 24.8039 6.01296 23.1815 6.01296C21.5201 6.01296 20.2147 4.66844 20.2147 3.00648C20.2147 1.34508 21.5598 0 23.1815 0C24.8435 0 26.149 1.34452 26.149 3.00704Z" fill="white" fill-opacity="0.7"/>
</svg>
