<svg viewBox="0 0 194 49" fill="none" xmlns="http://www.w3.org/2000/svg">
  <g clip-path="url(#clip0_3141_8100)">
    <path d="M86.8671 37.1567V32.9697H76.5122L86.8769 18.7603V15.823H70V20.01H80.3549L69.9902 34.2194V37.1567H86.8671ZM94.1244 37.4266C94.8675 37.4266 95.5363 37.3347 96.1289 37.1469C96.6981 36.9728 97.2262 36.6854 97.6816 36.3021C98.1236 35.9266 98.4854 35.469 98.7709 34.9273H98.896V37.1567H103.687V26.2816C103.687 25.4348 103.511 24.6799 103.161 24.0209C102.805 23.3546 102.296 22.7817 101.677 22.3489C100.994 21.873 100.233 21.5203 99.428 21.3065C98.5073 21.0597 97.5572 20.9393 96.6041 20.9486C95.1726 20.9486 93.9484 21.1677 92.9314 21.6096C91.9145 22.0496 91.1166 22.6539 90.5358 23.4225C89.957 24.1891 89.5971 25.0593 89.4583 26.0313L94.1557 26.1975C94.2506 25.7088 94.5309 25.2757 94.9379 24.9889C95.3486 24.6975 95.8883 24.5528 96.5611 24.5528C97.1868 24.5528 97.6836 24.6975 98.0512 24.9889C98.4189 25.2823 98.6047 25.6929 98.6047 26.2288V26.2816C98.6109 26.4295 98.5791 26.5766 98.5124 26.7087C98.4456 26.8409 98.3461 26.9537 98.2233 27.0364C97.9691 27.2124 97.5662 27.3493 97.0108 27.4432C96.4554 27.5371 95.7201 27.6251 94.8127 27.7092C94.038 27.7719 93.2708 27.9061 92.5208 28.1101C91.805 28.3076 91.1714 28.599 90.6238 28.9803C90.0763 29.3617 89.646 29.8584 89.3331 30.4685C89.0202 31.0806 88.8638 31.8296 88.8638 32.7175C88.8638 33.7735 89.0906 34.6516 89.5463 35.3497C90.0019 36.0479 90.6219 36.5681 91.4119 36.9123C92.2001 37.2564 93.1035 37.4266 94.1244 37.4266ZM95.6967 34.0942C95.1139 34.0942 94.6328 33.9554 94.2554 33.6777C93.876 33.4 93.6883 32.9971 93.6883 32.4691C93.6883 32.121 93.7763 31.8218 93.9523 31.5695C94.15 31.2981 94.4158 31.0836 94.7228 30.9477C95.0611 30.7892 95.4679 30.67 95.947 30.5956C96.1836 30.5585 96.43 30.5213 96.6862 30.4783C97.1669 30.3999 97.6423 30.2921 98.1099 30.1556C98.3133 30.0931 98.4893 30.0246 98.6359 29.9483V31.4698C98.6359 31.99 98.503 32.4476 98.239 32.8387C97.975 33.2298 97.6229 33.5388 97.1829 33.7598C96.741 33.9828 96.2462 34.0942 95.6967 34.0942ZM111.467 37.1567V27.6877C111.467 27.1596 111.563 26.702 111.752 26.3129C111.944 25.9237 112.21 25.6225 112.55 25.4133C112.89 25.1982 113.281 25.0945 113.727 25.0945C114.386 25.0945 114.918 25.3096 115.321 25.7399C115.724 26.1701 115.925 26.7568 115.925 27.4999V37.1567H120.82V27.6036C120.82 26.8409 121.02 26.2307 121.421 25.777C121.82 25.3214 122.369 25.0926 123.071 25.0926C123.724 25.0926 124.254 25.3038 124.665 25.7242C125.076 26.1447 125.279 26.7529 125.279 27.5527V37.1567H130.373V26.3852C130.373 24.6975 129.9 23.3697 128.956 22.4017C128.011 21.4317 126.783 20.9486 125.269 20.9486C124.088 20.9486 123.063 21.2342 122.195 21.8091C121.36 22.3392 120.739 23.1486 120.445 24.0933H120.279C120.064 23.135 119.561 22.3723 118.769 21.8013C117.977 21.2342 117.026 20.9486 115.914 20.9486C114.819 20.9486 113.872 21.2283 113.08 21.7915C112.29 22.3547 111.727 23.1213 111.394 24.0933H111.216V21.1559H106.372V37.1567H111.467ZM138.215 37.1567V27.6877C138.215 27.1596 138.309 26.702 138.501 26.3129C138.693 25.9237 138.959 25.6225 139.299 25.4133C139.639 25.1982 140.03 25.0945 140.476 25.0945C141.135 25.0945 141.667 25.3096 142.068 25.7399C142.471 26.1701 142.674 26.7568 142.674 27.4999V37.1567H147.569V27.6036C147.569 26.8409 147.769 26.2307 148.168 25.777C148.566 25.3214 149.118 25.0926 149.82 25.0926C150.471 25.0926 151.003 25.3038 151.414 25.7242C151.825 26.1447 152.028 26.7529 152.028 27.5527V37.1567H157.122V26.3852C157.122 24.6975 156.649 23.3697 155.704 22.4017C154.76 21.4317 153.532 20.9486 152.016 20.9486C150.837 20.9486 149.812 21.2342 148.946 21.8091C148.11 22.3388 147.489 23.1483 147.194 24.0933H147.027C146.812 23.135 146.308 22.3723 145.518 21.8013C144.726 21.2342 143.773 20.9486 142.662 20.9486C141.565 20.9486 140.621 21.2283 139.829 21.7915C139.037 22.3547 138.476 23.1213 138.141 24.0933H137.965V21.1559H133.121V37.1567H138.215ZM164.381 37.4266C165.125 37.4266 165.789 37.3347 166.384 37.1469C166.953 36.9728 167.481 36.6854 167.937 36.3021C168.379 35.9266 168.74 35.469 169.026 34.9273H169.151V37.1567H173.942V26.2816C173.942 25.4348 173.766 24.6799 173.416 24.0209C173.059 23.3544 172.55 22.7815 171.93 22.3489C171.247 21.873 170.486 21.5203 169.681 21.3065C168.761 21.0598 167.812 20.9394 166.859 20.9486C165.428 20.9486 164.203 21.1677 163.187 21.6096C162.17 22.0496 161.372 22.6539 160.791 23.4225C160.212 24.1891 159.852 25.0593 159.713 26.0313L164.411 26.1975C164.506 25.7088 164.786 25.2757 165.193 24.9889C165.604 24.6975 166.143 24.5528 166.816 24.5528C167.442 24.5528 167.939 24.6975 168.306 24.9889C168.674 25.2823 168.86 25.6929 168.86 26.2288V26.2816C168.866 26.4295 168.834 26.5766 168.767 26.7087C168.701 26.8409 168.601 26.9537 168.478 27.0364C168.224 27.2124 167.821 27.3493 167.266 27.4432C166.709 27.5371 165.975 27.6251 165.068 27.7092C164.293 27.7719 163.526 27.9061 162.776 28.1101C162.06 28.3076 161.427 28.599 160.879 28.9803C160.331 29.3617 159.901 29.8584 159.588 30.4685C159.275 31.0806 159.119 31.8296 159.119 32.7175C159.119 33.7735 159.346 34.6516 159.801 35.3497C160.257 36.0479 160.877 36.5681 161.665 36.9123C162.455 37.2564 163.361 37.4266 164.381 37.4266ZM165.952 34.0942C165.369 34.0942 164.888 33.9554 164.511 33.6777C164.131 33.4 163.943 32.9971 163.943 32.4691C163.943 32.121 164.031 31.8218 164.207 31.5695C164.405 31.2981 164.671 31.0836 164.978 30.9477C165.316 30.7892 165.723 30.67 166.202 30.5956C166.439 30.5585 166.685 30.5213 166.941 30.4783C167.422 30.3999 167.897 30.2921 168.365 30.1556C168.568 30.0931 168.744 30.0246 168.891 29.9483V31.4698C168.891 31.99 168.758 32.4476 168.494 32.8387C168.23 33.2298 167.878 33.5388 167.438 33.7598C166.996 33.9828 166.501 34.0942 165.952 34.0942ZM182.471 37.3855C183.277 37.3855 183.977 37.2545 184.571 36.9905C185.164 36.7265 185.658 36.3784 186.055 35.9481C186.45 35.5179 186.756 35.0564 186.971 34.5636H187.127V37.1567H192.171V15.821H187.076V23.8977H186.971C186.753 23.3842 186.455 22.9088 186.087 22.4897C185.675 22.0216 185.171 21.644 184.606 21.3808C184.01 21.0914 183.29 20.9486 182.451 20.9486C181.333 20.9486 180.288 21.24 179.32 21.8228C178.352 22.4056 177.568 23.3051 176.972 24.5215C176.373 25.736 176.076 27.2848 176.076 29.1661C176.076 30.9789 176.363 32.4965 176.94 33.7187C177.517 34.941 178.288 35.8582 179.252 36.4683C180.213 37.0794 181.332 37.3967 182.471 37.3855ZM184.243 33.4156C183.664 33.4341 183.098 33.2486 182.643 32.8915C182.209 32.5395 181.878 32.0447 181.649 31.4053C181.407 30.6809 181.29 29.9202 181.305 29.1563C181.305 28.2959 181.417 27.5488 181.644 26.9172C181.868 26.2855 182.201 25.7946 182.639 25.4485C183.075 25.1004 183.611 24.9263 184.243 24.9263C184.861 24.9263 185.391 25.0965 185.831 25.4368C186.272 25.777 186.609 26.264 186.842 26.8956C187.074 27.5273 187.19 28.2822 187.19 29.1563C187.19 30.0168 187.072 30.7677 186.838 31.4053C186.599 32.0447 186.263 32.5395 185.827 32.8915C185.389 33.2416 184.861 33.4156 184.243 33.4156Z" fill="white"/>
    <path fill-rule="evenodd" clip-rule="evenodd" d="M24.5926 30.4097L1.41211 38.8777L33.5789 35.0954L24.5926 30.4097Z" fill="white"/>
    <path fill-rule="evenodd" clip-rule="evenodd" d="M24.5924 30.4098L27.653 37.5538L6.83691 27.6816L24.5924 30.4098Z" fill="white"/>
    <path fill-rule="evenodd" clip-rule="evenodd" d="M53.8123 14.5265L51.4538 18.2227L56.3684 13.5056L53.8123 14.5265ZM40.4258 15.119L44.6422 16.9476L51.4675 15.3048L51.4518 14.5499L40.4258 15.119Z" fill="white"/>
    <path fill-rule="evenodd" clip-rule="evenodd" d="M55.9323 11.9255L52.0503 14.1941L49.6976 15.876L48.3189 22.6113L49.461 22.0441L55.9323 11.9255ZM51.4518 14.55L38.9004 17.7515L44.3763 18.8897L51.4518 14.55Z" fill="white"/>
    <path fill-rule="evenodd" clip-rule="evenodd" d="M45.0334 30.4999L49.4434 22.0847L52.0483 14.1917L24.5928 30.41L33.45 31.6264L45.0334 30.4999Z" fill="white"/>
    <path fill-rule="evenodd" clip-rule="evenodd" d="M24.5938 30.4103L29.6589 27.6822L32.3049 7.52515L24.5938 30.4103Z" fill="white"/>
    <path fill-rule="evenodd" clip-rule="evenodd" d="M32.3045 7.52556L20.377 -0.128906L32.5959 13.6781L32.3045 7.52556Z" fill="white"/>
    <path fill-rule="evenodd" clip-rule="evenodd" d="M32.4796 11.059L18.1055 6.62354L32.6556 15.9931L32.4796 11.059Z" fill="white"/>
    <path fill-rule="evenodd" clip-rule="evenodd" d="M32.4784 11.0593L18.9961 17.7086L32.6545 15.9935L32.4784 11.0593Z" fill="white"/>
    <path fill-rule="evenodd" clip-rule="evenodd" d="M32.3041 7.52515L29.0029 28.486L34.6411 24.8954L32.5935 8.07664L32.3041 7.52515Z" fill="white"/>
    <path fill-rule="evenodd" clip-rule="evenodd" d="M44.1607 18.8479L46.4841 27.7442L45.033 30.5017L39.9561 21.3336L44.1607 18.8479Z" fill="white"/>
    <path fill-rule="evenodd" clip-rule="evenodd" d="M31.0308 30.0305L27.6514 37.554L45.0314 30.4999L31.0308 30.0305Z" fill="white"/>
    <path fill-rule="evenodd" clip-rule="evenodd" d="M32.3027 7.52515L33.4468 31.6268L45.0302 30.5003L32.3027 7.52515Z" fill="white"/>
    <path fill-rule="evenodd" clip-rule="evenodd" d="M33.1501 25.3743L33.4493 31.6285L21.3594 35.884L24.5921 30.4101L33.1501 25.3743Z" fill="white"/>
    <path fill-rule="evenodd" clip-rule="evenodd" d="M33.4496 31.628L27.653 37.5537L0.0566406 48.7147L24.5924 30.4116L33.4496 31.628Z" fill="white"/>
  </g>
  <defs>
    <clipPath id="clip0_3141_8100">
      <rect width="193.61" height="48.8901" fill="white"/>
    </clipPath>
  </defs>
</svg>
